<svg xmlns="http://www.w3.org/2000/svg" direction="ltr" width="74.21801092944997" height="71.16856035165904" viewBox="1321.141970269503 876.080021824212 74.21801092944997 71.16856035165904" stroke-linecap="round" stroke-linejoin="round" data-color-mode="light" class="tl-container tl-theme__force-sRGB tl-theme__light" style="background-color: rgb(249, 250, 251);"><defs/><g transform="matrix(1, 0, 0, 1, 1362.4101, 908.08)" opacity="1"><g transform="scale(1)"><path fill="#fcfffe" d="M0.1756,1.0534 Q0.3511,2.1067 0.4717,2.853 T0.6602,4.0783 0.7718,4.8816 0.8394,5.4737 0.883,5.9508 0.9135,6.3152 0.9302,6.5796 0.9392,6.7576 0.9441,6.8681 0.9468,6.9351 0.9483,6.9852 0.9491,7.0284 0.9495,7.0702 0.9497,7.118 0.9498,7.1554 0.8678,7.0822 0.4539,6.7461 -0.3733,6.2189 -1.7056,5.5924 -3.4792,4.9027 -5.0915,4.3269 -6.2057,3.9339 -6.9304,3.6676 -7.4752,3.4772 -7.9767,3.3326 -8.5026,3.2242 -8.9757,3.1493 -9.217,3.0812 -9.0747,2.9918 -8.1515,2.8177 -6.288,2.4334 -4.148,1.8482 -2.3933,1.2311 -0.7526,0.5892 0.07,0.12 0.1756,1.0534 Z"/><path d="M2.149,-0.3582 T2.2852,0.7018 2.6287,3.0101 3.0188,5.6451 3.2015,7.0318 A2.2558,2.2558 0 0 1 -1.3017,7.3053 T-1.3409,6.0807 -1.5496,3.6539 -1.9341,1.405 -2.149,0.3582 A2.1786,2.1786 0 0 1 2.149,-0.3582 ZM-0.3118,9.0385 T-1.1478,8.4877 -3.5694,7.2666 -6.2696,6.2148 -8.5826,5.5536 -9.7812,5.2739 A2.2896,2.2896 0 0 1 -8.7551,0.8111 T-7.3296,1.2651 -4.7902,2.1237 -2.6798,2.8556 -0.7183,3.5646 1.2292,4.6225 2.2116,5.2987 A2.2558,2.2558 0 0 1 -0.3118,9.0385 ZM-9.6923,0.7925 T-8.7472,0.6185 -6.7202,0.2587 -4.7094,-0.1924 -2.1926,-1.0609 -0.605,-1.6641 A2.0447,2.0447 0 0 1 0.885,2.1441 T-0.8089,2.8247 -3.5866,3.8887 -5.8558,4.6081 -7.9425,5.1183 -8.8439,5.2925 A2.2896,2.2896 0 0 1 -9.6923,0.7925 Z" stroke-linecap="round" fill="#1d1d1d"/></g></g></svg>