<svg xmlns="http://www.w3.org/2000/svg" direction="ltr" width="91.61999999999989" height="80.520650978861" viewBox="1375.791592817249 753.7748635443827 91.61999999999989 80.520650978861" stroke-linecap="round" stroke-linejoin="round" data-color-mode="light" class="tl-container tl-theme__force-sRGB tl-theme__light" style="background-color: rgb(249, 250, 251);"><defs/><g transform="matrix(1, 0, 0, 1, 1407.7916, 794.2549)" opacity="1"><g transform="scale(1)"><path d="M1.7799,-0.9227 T2.3089,0.2194 3.4981,2.4104 4.7941,4.2292 6.3618,5.729 7.2937,6.459 A1.9076,1.9076 0 0 1 5.1609,9.6223 T3.9386,8.4306 1.9884,6.3565 0.3696,4.2908 -1.1506,2.015 -1.7799,0.9227 A2.0049,2.0049 0 0 1 1.7799,-0.9227 ZM5.1634,6.4573 T5.8326,5.9946 7.9626,4.4739 11.5126,1.8282 15.8326,-1.3889 19.7764,-4.2381 22.7068,-6.3653 25.3824,-8.3777 26.8404,-9.4826 A1.27,1.27 0 0 1 28.3996,-7.4774 T26.9695,-6.3366 24.336,-4.2207 21.4848,-1.9691 17.7096,1.0014 13.5904,4.4 10.1268,7.4194 7.973,9.179 7.2912,9.624 A1.9076,1.9076 0 0 1 5.1634,6.4573 Z" stroke-linecap="round" fill="#4cb05e"/></g></g></svg>