<svg xmlns="http://www.w3.org/2000/svg" direction="ltr" width="81.53766505014096" height="78.8555167973118" viewBox="1374.1459471142357 761.0469198442535 81.53766505014096 78.8555167973118" stroke-linecap="round" stroke-linejoin="round" data-color-mode="light" class="tl-container tl-theme__force-sRGB tl-theme__light" style="background-color: rgb(249, 250, 251);"><defs/><g transform="matrix(1, 0, 0, 1, 1407.4659, 796.9501)" opacity="1"><g transform="scale(1)"><path d="M2.1785,0.0495 T2.0889,1.2519 1.9681,3.4161 1.9238,5.634 1.9066,7.8955 1.9602,9.8948 2.018,10.8889 A2.262,2.262 0 0 1 -2.5042,11.0157 T-2.4547,9.8393 -2.3188,7.7109 -2.1691,5.5374 -2.1073,3.3383 -2.1436,1.1557 -2.1785,-0.0495 A2.179,2.179 0 0 1 2.1785,0.0495 ZM-0.5034,8.7054 T0.1313,8.6331 1.9492,8.4813 5.1266,8.3558 9.0826,8.3027 12.3766,8.2758 14.742,8.0511 15.7752,7.8463 A1.7646,1.7646 0 0 1 16.2204,11.3472 T15.0316,11.4249 12.5311,11.5911 9.3268,11.8718 5.5454,12.3421 2.4712,12.8351 0.6515,13.1246 0.0171,13.1993 A2.262,2.262 0 0 1 -0.5034,8.7054 ZM14.2447,9.3954 T14.2764,8.7045 14.1644,7.0431 13.8724,4.9202 13.6233,2.6728 13.5177,0.3412 13.4713,-1.8364 13.4296,-2.7772 A2.3283,2.3283 0 0 1 18.0839,-2.9213 T18.039,-1.8232 17.8948,0.3704 17.7932,2.4212 17.8637,4.4942 18.001,6.7498 17.9081,8.8429 17.7508,9.7981 A1.7646,1.7646 0 0 1 14.2447,9.3954 ZM15.5401,-0.5311 T14.1057,-0.7084 11.0359,-1.1287 7.7569,-1.5872 4.7158,-1.9435 2.0331,-2.0874 0.0633,-1.8407 -0.6211,-1.5912 A1.9485,1.9485 0 0 1 -2.0189,-5.2288 T-0.5424,-5.4325 2.2202,-5.5038 4.9274,-5.3514 8.0082,-5.3263 11.2969,-5.3435 14.4496,-5.2665 15.9734,-5.1674 A2.3283,2.3283 0 0 1 15.5401,-0.5311 Z" stroke-linecap="round" fill="#1d1d1d"/></g></g></svg>