<svg xmlns="http://www.w3.org/2000/svg" direction="ltr" width="80.0087471566244" height="78.30999999999995" viewBox="1438.031510168162 687.4870589324984 80.0087471566244 78.30999999999995" stroke-linecap="round" stroke-linejoin="round" data-color-mode="light" class="tl-container tl-theme__force-sRGB tl-theme__light" style="background-color: rgb(249, 250, 251);"><defs/><g transform="matrix(1, 0, 0, 1, 1472.2103, 719.4871)" opacity="1"><g transform="scale(1)"><path d="M1.2487,-1.2012 T2.1877,-0.1422 4.2183,2.0674 6.6814,4.5643 9.1839,7.0357 11.1857,9.0062 12.7671,10.6763 14.2369,12.4435 14.996,13.3859 A1.4878,1.4878 0 0 1 12.664,15.2341 T11.9199,14.2799 10.6266,12.5608 9.2772,10.9426 7.3082,9.0227 4.6824,6.6561 2.0103,4.2581 -0.2269,2.1806 -1.2487,1.2012 A1.7327,1.7327 0 0 1 1.2487,-1.2012 Z" stroke-linecap="round" fill="#1d1d1d"/></g></g><g transform="matrix(1, 0, 0, 1, 1485.5615, 720.3646)" opacity="1"><g transform="scale(1)"><path d="M1.0552,1.485 T0.0715,2.1529 -2.0623,3.5197 -4.3533,4.9503 -6.7047,6.5704 -8.9534,8.3272 -10.8739,10.0162 -13.0682,12.3325 -14.3803,13.8284 A1.5695,1.5695 0 0 1 -16.6797,11.6916 T-15.9104,10.8851 -14.4334,9.3796 -12.798,7.8485 -10.8138,6.0794 -8.5336,4.0949 -6.181,2.2155 -4.008,0.6586 -2.0095,-0.7758 -1.0552,-1.485 A1.8217,1.8217 0 0 1 1.0552,1.485 Z" stroke-linecap="round" fill="#1d1d1d"/></g></g></svg>