<svg xmlns="http://www.w3.org/2000/svg" direction="ltr" width="111.85814610751345" height="111.51864244035119" viewBox="1114.5142946502783 678.1095526892678 111.85814610751345 111.51864244035119" stroke-linecap="round" stroke-linejoin="round" data-color-mode="light" class="tl-container tl-theme__force-sRGB tl-theme__light" style="background-color: rgb(249, 250, 251);"><defs/><g transform="matrix(1, 0, 0, 1, 1183.6406, 725.2062)" opacity="1"><g transform="scale(1)"><path d="M0,4.7855 T-1.477,4.7992 -4.9026,5.1778 -8.5163,6.4555 -11.7748,8.5168 -14.4468,11.4091 -16.6891,16.0505 -17.5914,19.6826 -17.3299,20.4173 A5.2408,5.2408 0 0 1 -27.8101,20.2427 T-27.6242,18.1025 -26.9628,13.9512 -25.4962,9.9981 -23.2528,6.1879 -20.3786,2.747 -16.5064,-0.2929 -12.4357,-2.6839 -8.6962,-4.1324 -4.8656,-4.735 -1.477,-4.7992 0,-4.7855 A4.7855,4.7855 0 0 1 0,4.7855 Z" stroke-linecap="round" fill="#1d1d1d"/></g></g><g transform="matrix(1, 0, 0, 1, 1180.1694, 721.239)" opacity="1"><g transform="scale(1)"><path d="M-4.7065,0 T-4.7276,-1.2763 -4.7048,-5.6037 -4.6608,-8.6549 A4.932,4.932 0 0 1 5.156,-7.6914 T4.9524,-5.122 4.7276,-1.2763 4.7065,0 A4.7065,4.7065 0 0 1 -4.7065,0 ZM-0.094,-13.0933 T-0.0388,-13.0989 0.0163,-13.1045 A4.9355,4.9355 0 0 1 0.7,-3.2572 T0.6446,-3.2551 0.5892,-3.253 A4.932,4.932 0 0 1 -0.094,-13.0933 ZM2.2203,-12.7515 T3.4974,-12.2743 4.7745,-11.797 A5.0152,5.0152 0 0 1 0.9901,-2.5079 T-0.2569,-3.059 -1.504,-3.6101 A4.9355,4.9355 0 0 1 2.2203,-12.7515 ZM7.8474,-6.4449 T7.6965,-5.3048 7.4467,-1.4463 7.3477,1.2721 A5.1178,5.1178 0 0 1 -2.8877,1.2279 T-2.7439,-1.5822 -2.3414,-6.1262 -2.0827,-7.8601 A5.0152,5.0152 0 0 1 7.8474,-6.4449 Z" stroke-linecap="round" fill="#1d1d1d"/></g></g><g transform="matrix(1, 0, 0, 1, 1158.1021, 742.8105)" opacity="1"><g transform="scale(1)"><path d="M0,4.7227 T-1.3909,4.7534 -5.5471,5.0099 -8.3122,5.2356 A4.9759,4.9759 0 0 1 -9.3707,-4.6597 T-6.0763,-4.7219 -1.3909,-4.7534 0,-4.7227 A4.7227,4.7227 0 0 1 0,4.7227 ZM-4.2234,-1.5648 T-5.1081,-1.7993 -2.8664,-2.3586 0.26,-2.6833 A5.1433,5.1433 0 0 1 0.26,7.6033 T-2.3125,7.4027 -7.3468,7.2508 -11.6341,4.7201 -13.4596,2.1407 A4.9759,4.9759 0 0 1 -4.2234,-1.5648 Z" stroke-linecap="round" fill="#1d1d1d"/></g></g><g transform="matrix(1, 0, 0, 1, 1153.3897, 723.1642)" opacity="1"><g transform="scale(1)"><path d="M2.6473,-4.0882 T3.9639,-3.2535 6.8469,-0.8961 9.9106,1.6481 11.4078,2.6695 A5.1099,5.1099 0 0 1 5.2677,10.8393 T3.8957,9.5249 0.9556,6.826 -1.6299,4.7649 -2.6473,4.0882 A4.8705,4.8705 0 0 1 2.6473,-4.0882 ZM5.5379,2.4798 T7.2036,1.4446 9.9765,-0.4474 11.0836,-1.3042 A5.22,5.22 0 0 1 17.1554,7.1887 T14.767,8.6466 11.7581,10.5668 11.1376,11.029 A5.1099,5.1099 0 0 1 5.5379,2.4798 ZM10.8271,6.993 T9.6903,6.0883 7.0037,3.7361 3.3489,0.4318 1.244,-1.4251 A5.336,5.336 0 0 1 9.0079,-8.7472 T10.4546,-7.1508 13.6587,-4.1619 16.4141,-1.9389 17.412,-1.1085 A5.22,5.22 0 0 1 10.8271,6.993 ZM8.8268,-1.2421 T7.0641,0.4754 5.3014,2.1928 A5.3654,5.3654 0 0 1 -2.1411,-5.5378 T-0.358,-7.234 1.4251,-8.9302 A5.336,5.336 0 0 1 8.8268,-1.2421 ZM3.9814,-6.4706 T5.223,-5.8565 8.3278,-4.1605 11.6072,-1.9557 13.0231,-0.8328 A5.3684,5.3684 0 0 1 6.4969,7.6928 T4.14,6.0681 0.481,3.7845 -0.8211,3.1256 A5.3654,5.3654 0 0 1 3.9814,-6.4706 Z" stroke-linecap="round" fill="#1d1d1d"/></g></g><g transform="matrix(1, 0, 0, 1, 1183.6587, 729.9092)" opacity="1"><g transform="scale(1)"><path d="M0,4.8577 T-1.2932,4.8791 -4.5926,5.2948 -8.0762,6.9441 -10.8816,10.0254 -12.6507,13.9102 -12.9256,16.3199 -12.7596,16.6711 A5.2808,5.2808 0 0 1 -23.0204,14.1689 T-22.3781,11.7186 -20.9337,7.3598 -18.8978,3.9416 -16.4168,0.9824 -13.4281,-1.6 -8.9899,-3.5852 -4.4399,-4.669 -1.2932,-4.8791 0,-4.8577 A4.8577,4.8577 0 0 1 0,4.8577 Z" stroke-linecap="round" fill="#1d1d1d"/></g></g><g transform="matrix(1, 0, 0, 1, 1155.6224, 742.9285)" opacity="1"><g transform="scale(1)"><path d="M0,4.7227 T-1.3909,4.7534 -5.5471,5.0099 -8.3122,5.2356 A4.9759,4.9759 0 0 1 -9.3707,-4.6597 T-6.0763,-4.7219 -1.3909,-4.7534 0,-4.7227 A4.7227,4.7227 0 0 1 0,4.7227 ZM-4.2234,-1.5648 T-5.1081,-1.7993 -2.8664,-2.3586 0.26,-2.6833 A5.1433,5.1433 0 0 1 0.26,7.6033 T-2.3125,7.4027 -7.3468,7.2508 -11.6341,4.7201 -13.4596,2.1407 A4.9759,4.9759 0 0 1 -4.2234,-1.5648 Z" stroke-linecap="round" fill="#1d1d1d"/></g></g><g transform="matrix(1, 0, 0, 1, 1181.179, 730.0273)" opacity="1"><g transform="scale(1)"><path d="M0,4.8577 T-1.2932,4.8791 -4.5926,5.2948 -8.0762,6.9441 -10.8816,10.0254 -12.6507,13.9102 -12.9256,16.3199 -12.7596,16.6711 A5.2808,5.2808 0 0 1 -23.0204,14.1689 T-22.3781,11.7186 -20.9337,7.3598 -18.8978,3.9416 -16.4168,0.9824 -13.4281,-1.6 -8.9899,-3.5852 -4.4399,-4.669 -1.2932,-4.8791 0,-4.8577 A4.8577,4.8577 0 0 1 0,4.8577 Z" stroke-linecap="round" fill="#1d1d1d"/></g></g><g transform="matrix(1, 0, 0, 1, 1155.6224, 742.9285)" opacity="1"><g transform="scale(1)"><path d="M0,4.7227 T-1.3909,4.7534 -5.5471,5.0099 -8.3122,5.2356 A4.9759,4.9759 0 0 1 -9.3707,-4.6597 T-6.0763,-4.7219 -1.3909,-4.7534 0,-4.7227 A4.7227,4.7227 0 0 1 0,4.7227 ZM-4.2234,-1.5648 T-5.1081,-1.7993 -2.8664,-2.3586 0.26,-2.6833 A5.1433,5.1433 0 0 1 0.26,7.6033 T-2.3125,7.4027 -7.3468,7.2508 -11.6341,4.7201 -13.4596,2.1407 A4.9759,4.9759 0 0 1 -4.2234,-1.5648 Z" stroke-linecap="round" fill="#1d1d1d"/></g></g><g transform="matrix(1, 0, 0, 1, 1181.179, 730.0273)" opacity="1"><g transform="scale(1)"><path d="M0,4.8577 T-1.2932,4.8791 -4.5926,5.2948 -8.0762,6.9441 -10.8816,10.0254 -12.6507,13.9102 -12.9256,16.3199 -12.7596,16.6711 A5.2808,5.2808 0 0 1 -23.0204,14.1689 T-22.3781,11.7186 -20.9337,7.3598 -18.8978,3.9416 -16.4168,0.9824 -13.4281,-1.6 -8.9899,-3.5852 -4.4399,-4.669 -1.2932,-4.8791 0,-4.8577 A4.8577,4.8577 0 0 1 0,4.8577 Z" stroke-linecap="round" fill="#1d1d1d"/></g></g><g transform="matrix(1, 0, 0, 1, 1183.4226, 732.2709)" opacity="1"><g transform="scale(1)"><path d="M0,4.8577 T-1.2932,4.8791 -4.5926,5.2948 -8.0762,6.9441 -10.8816,10.0254 -12.6507,13.9102 -12.9256,16.3199 -12.7596,16.6711 A5.2808,5.2808 0 0 1 -23.0204,14.1689 T-22.3781,11.7186 -20.9337,7.3598 -18.8978,3.9416 -16.4168,0.9824 -13.4281,-1.6 -8.9899,-3.5852 -4.4399,-4.669 -1.2932,-4.8791 0,-4.8577 A4.8577,4.8577 0 0 1 0,4.8577 Z" stroke-linecap="round" fill="#1d1d1d"/></g></g><g transform="matrix(1, 0, 0, 1, 1183.6406, 725.2062)" opacity="1"><g transform="scale(1)"><path d="M0,4.7855 T-1.477,4.7992 -4.9026,5.1778 -8.5163,6.4555 -11.7748,8.5168 -14.4468,11.4091 -16.6891,16.0505 -17.5914,19.6826 -17.3299,20.4173 A5.2408,5.2408 0 0 1 -27.8101,20.2427 T-27.6242,18.1025 -26.9628,13.9512 -25.4962,9.9981 -23.2528,6.1879 -20.3786,2.747 -16.5064,-0.2929 -12.4357,-2.6839 -8.6962,-4.1324 -4.8656,-4.735 -1.477,-4.7992 0,-4.7855 A4.7855,4.7855 0 0 1 0,4.7855 Z" stroke-linecap="round" fill="#1d1d1d"/></g></g><g transform="matrix(1, 0, 0, 1, 1180.1694, 721.239)" opacity="1"><g transform="scale(1)"><path d="M-4.7065,0 T-4.7276,-1.2763 -4.7048,-5.6037 -4.6608,-8.6549 A4.932,4.932 0 0 1 5.156,-7.6914 T4.9524,-5.122 4.7276,-1.2763 4.7065,0 A4.7065,4.7065 0 0 1 -4.7065,0 ZM-0.094,-13.0933 T-0.0388,-13.0989 0.0163,-13.1045 A4.9355,4.9355 0 0 1 0.7,-3.2572 T0.6446,-3.2551 0.5892,-3.253 A4.932,4.932 0 0 1 -0.094,-13.0933 ZM2.2203,-12.7515 T3.4974,-12.2743 4.7745,-11.797 A5.0152,5.0152 0 0 1 0.9901,-2.5079 T-0.2569,-3.059 -1.504,-3.6101 A4.9355,4.9355 0 0 1 2.2203,-12.7515 ZM7.8474,-6.4449 T7.6965,-5.3048 7.4467,-1.4463 7.3477,1.2721 A5.1178,5.1178 0 0 1 -2.8877,1.2279 T-2.7439,-1.5822 -2.3414,-6.1262 -2.0827,-7.8601 A5.0152,5.0152 0 0 1 7.8474,-6.4449 Z" stroke-linecap="round" fill="#1d1d1d"/></g></g><g transform="matrix(1, 0, 0, 1, 1158.3658, 751.6282)" opacity="1"><g transform="scale(1)"><path d="M0,4.7227 T-1.3909,4.7534 -6.0763,4.7219 -9.3707,4.6597 A4.9759,4.9759 0 0 1 -8.3122,-5.2356 T-5.5471,-5.0099 -1.3909,-4.7534 0,-4.7227 A4.7227,4.7227 0 0 1 0,4.7227 ZM-13.4596,-2.1407 T-11.6341,-4.7201 -7.3468,-7.2508 -2.3125,-7.4027 0.26,-7.6033 A5.1433,5.1433 0 0 1 0.26,2.6833 T-2.8664,2.3586 -5.1081,1.7993 -4.2234,1.5648 A4.9759,4.9759 0 0 1 -13.4596,-2.1407 Z" stroke-linecap="round" fill="#1d1d1d"/></g></g><g transform="matrix(1, 0, 0, 1, 1155.8861, 751.5101)" opacity="1"><g transform="scale(1)"><path d="M0,4.7227 T-1.3909,4.7534 -6.0763,4.7219 -9.3707,4.6597 A4.9759,4.9759 0 0 1 -8.3122,-5.2356 T-5.5471,-5.0099 -1.3909,-4.7534 0,-4.7227 A4.7227,4.7227 0 0 1 0,4.7227 ZM-13.4596,-2.1407 T-11.6341,-4.7201 -7.3468,-7.2508 -2.3125,-7.4027 0.26,-7.6033 A5.1433,5.1433 0 0 1 0.26,2.6833 T-2.8664,2.3586 -5.1081,1.7993 -4.2234,1.5648 A4.9759,4.9759 0 0 1 -13.4596,-2.1407 Z" stroke-linecap="round" fill="#1d1d1d"/></g></g><g transform="matrix(1, 0, 0, 1, 1155.8861, 751.5101)" opacity="1"><g transform="scale(1)"><path d="M0,4.7227 T-1.3909,4.7534 -6.0763,4.7219 -9.3707,4.6597 A4.9759,4.9759 0 0 1 -8.3122,-5.2356 T-5.5471,-5.0099 -1.3909,-4.7534 0,-4.7227 A4.7227,4.7227 0 0 1 0,4.7227 ZM-13.4596,-2.1407 T-11.6341,-4.7201 -7.3468,-7.2508 -2.3125,-7.4027 0.26,-7.6033 A5.1433,5.1433 0 0 1 0.26,2.6833 T-2.8664,2.3586 -5.1081,1.7993 -4.2234,1.5648 A4.9759,4.9759 0 0 1 -13.4596,-2.1407 Z" stroke-linecap="round" fill="#1d1d1d"/></g></g><g transform="matrix(1, 0, 0, 1, 1158.3658, 751.6282)" opacity="1"><g transform="scale(1)"><path d="M0,4.7227 T-1.3909,4.7534 -6.0763,4.7219 -9.3707,4.6597 A4.9759,4.9759 0 0 1 -8.3122,-5.2356 T-5.5471,-5.0099 -1.3909,-4.7534 0,-4.7227 A4.7227,4.7227 0 0 1 0,4.7227 ZM-13.4596,-2.1407 T-11.6341,-4.7201 -7.3468,-7.2508 -2.3125,-7.4027 0.26,-7.6033 A5.1433,5.1433 0 0 1 0.26,2.6833 T-2.8664,2.3586 -5.1081,1.7993 -4.2234,1.5648 A4.9759,4.9759 0 0 1 -13.4596,-2.1407 Z" stroke-linecap="round" fill="#1d1d1d"/></g></g><g transform="matrix(1, 0, 0, 1, 1146.778, 751.762)" opacity="1"><g transform="scale(1)"><path d="M-4.8129,-0.2018 T-4.7777,-1.5756 -4.4386,-5.0495 -4.1347,-7.1496 A4.978,4.978 0 0 1 5.6232,-5.1733 T5.2903,-3.6739 4.8852,-0.9864 4.8129,0.2018 A4.8171,4.8171 0 0 1 -4.8129,-0.2018 ZM0.7483,-11.1395 T1.8789,-11.164 5.0023,-11.242 9.1181,-11.2042 13.2275,-10.9149 17.3119,-10.6207 19.41,-10.5245 A5.2352,5.2352 0 0 1 19.23,-0.0555 T17.209,-0.1364 13.3194,-0.5007 9.5886,-0.9021 5.6894,-1.0751 2.1963,-1.1568 0.7403,-1.1834 A4.978,4.978 0 0 1 0.7483,-11.1395 Z" stroke-linecap="round" fill="#1d1d1d"/></g></g><g transform="matrix(1, 0, 0, 1, 1158.1021, 742.8105)" opacity="1"><g transform="scale(1)"><path d="M0,4.7227 T-1.3909,4.7534 -5.5471,5.0099 -8.3122,5.2356 A4.9759,4.9759 0 0 1 -9.3707,-4.6597 T-6.0763,-4.7219 -1.3909,-4.7534 0,-4.7227 A4.7227,4.7227 0 0 1 0,4.7227 ZM-4.2234,-1.5648 T-5.1081,-1.7993 -2.8664,-2.3586 0.26,-2.6833 A5.1433,5.1433 0 0 1 0.26,7.6033 T-2.3125,7.4027 -7.3468,7.2508 -11.6341,4.7201 -13.4596,2.1407 A4.9759,4.9759 0 0 1 -4.2234,-1.5648 Z" stroke-linecap="round" fill="#1d1d1d"/></g></g><g transform="matrix(1, 0, 0, 1, 1153.3897, 723.1642)" opacity="1"><g transform="scale(1)"><path d="M2.6473,-4.0882 T3.9639,-3.2535 6.8469,-0.8961 9.9106,1.6481 11.4078,2.6695 A5.1099,5.1099 0 0 1 5.2677,10.8393 T3.8957,9.5249 0.9556,6.826 -1.6299,4.7649 -2.6473,4.0882 A4.8705,4.8705 0 0 1 2.6473,-4.0882 ZM5.5379,2.4798 T7.2036,1.4446 9.9765,-0.4474 11.0836,-1.3042 A5.22,5.22 0 0 1 17.1554,7.1887 T14.767,8.6466 11.7581,10.5668 11.1376,11.029 A5.1099,5.1099 0 0 1 5.5379,2.4798 ZM10.8271,6.993 T9.6903,6.0883 7.0037,3.7361 3.3489,0.4318 1.244,-1.4251 A5.336,5.336 0 0 1 9.0079,-8.7472 T10.4546,-7.1508 13.6587,-4.1619 16.4141,-1.9389 17.412,-1.1085 A5.22,5.22 0 0 1 10.8271,6.993 ZM8.8268,-1.2421 T7.0641,0.4754 5.3014,2.1928 A5.3654,5.3654 0 0 1 -2.1411,-5.5378 T-0.358,-7.234 1.4251,-8.9302 A5.336,5.336 0 0 1 8.8268,-1.2421 ZM3.9814,-6.4706 T5.223,-5.8565 8.3278,-4.1605 11.6072,-1.9557 13.0231,-0.8328 A5.3684,5.3684 0 0 1 6.4969,7.6928 T4.14,6.0681 0.481,3.7845 -0.8211,3.1256 A5.3654,5.3654 0 0 1 3.9814,-6.4706 Z" stroke-linecap="round" fill="#1d1d1d"/></g></g><g transform="matrix(1, 0, 0, 1, 1183.6587, 729.9092)" opacity="1"><g transform="scale(1)"><path d="M0,4.8577 T-1.2932,4.8791 -4.5926,5.2948 -8.0762,6.9441 -10.8816,10.0254 -12.6507,13.9102 -12.9256,16.3199 -12.7596,16.6711 A5.2808,5.2808 0 0 1 -23.0204,14.1689 T-22.3781,11.7186 -20.9337,7.3598 -18.8978,3.9416 -16.4168,0.9824 -13.4281,-1.6 -8.9899,-3.5852 -4.4399,-4.669 -1.2932,-4.8791 0,-4.8577 A4.8577,4.8577 0 0 1 0,4.8577 Z" stroke-linecap="round" fill="#1d1d1d"/></g></g><g transform="matrix(1, 0, 0, 1, 1180.0403, 710.637)" opacity="1"><g transform="scale(1)"><path d="M0.0772,-4.8185 T1.5001,-4.8156 5.2009,-4.5883 7.4787,-4.3639 A4.9928,4.9928 0 0 1 6.0302,5.5161 T4.1156,5.2054 1.0618,4.8566 -0.0772,4.8185 A4.8191,4.8191 0 0 1 0.0772,-4.8185 ZM11.6951,1.2962 T11.561,2.3095 11.3319,5.2902 11.0562,9.44 10.6083,13.7974 10.3954,17.2347 10.4497,18.4971 A5.242,5.242 0 0 1 -0.0297,18.1829 T0.0187,16.4007 0.3396,12.7714 0.7864,9.0579 1.1421,5.1125 1.5688,1.4447 1.8139,-0.144 A4.9928,4.9928 0 0 1 11.6951,1.2962 Z" stroke-linecap="round" fill="#1d1d1d"/></g></g><g transform="matrix(1, 0, 0, 1, 1146.5143, 742.6766)" opacity="1"><g transform="scale(1)"><path d="M4.8129,-0.2018 T4.8852,0.9864 5.2903,3.6739 5.6232,5.1733 A4.978,4.978 0 0 1 -4.1347,7.1496 T-4.4386,5.0495 -4.7777,1.5756 -4.8129,0.2018 A4.8171,4.8171 0 0 1 4.8129,-0.2018 ZM0.7403,1.1834 T2.1963,1.1568 5.6894,1.0751 9.5886,0.9021 13.3194,0.5007 17.209,0.1364 19.23,0.0555 A5.2352,5.2352 0 0 1 19.41,10.5245 T17.3119,10.6207 13.2275,10.9149 9.1181,11.2042 5.0023,11.242 1.8789,11.164 0.7483,11.1395 A4.978,4.978 0 0 1 0.7403,1.1834 Z" stroke-linecap="round" fill="#1d1d1d"/></g></g><g transform="matrix(1, 0, 0, 1, 1185.9023, 732.1528)" opacity="1"><g transform="scale(1)"><path d="M0,4.8577 T-1.2932,4.8791 -4.5926,5.2948 -8.0762,6.9441 -10.8816,10.0254 -12.6507,13.9102 -12.9256,16.3199 -12.7596,16.6711 A5.2808,5.2808 0 0 1 -23.0204,14.1689 T-22.3781,11.7186 -20.9337,7.3598 -18.8978,3.9416 -16.4168,0.9824 -13.4281,-1.6 -8.9899,-3.5852 -4.4399,-4.669 -1.2932,-4.8791 0,-4.8577 A4.8577,4.8577 0 0 1 0,4.8577 Z" stroke-linecap="round" fill="#1d1d1d"/></g></g><g transform="matrix(1, 0, 0, 1, 1188.3724, 720.7116)" opacity="1"><g transform="scale(1)"><path d="M-4.7065,0 T-4.7276,-1.2763 -4.9524,-5.122 -5.156,-7.6914 A4.932,4.932 0 0 1 4.6608,-8.6549 T4.7048,-5.6037 4.7276,-1.2763 4.7065,0 A4.7065,4.7065 0 0 1 -4.7065,0 ZM-0.5892,-3.253 T-0.6446,-3.2551 -0.7,-3.2572 A4.9355,4.9355 0 0 1 -0.0163,-13.1045 T0.0388,-13.0989 0.094,-13.0933 A4.932,4.932 0 0 1 -0.5892,-3.253 ZM1.504,-3.6101 T0.2569,-3.059 -0.9901,-2.5079 A5.0152,5.0152 0 0 1 -4.7745,-11.797 T-3.4974,-12.2743 -2.2203,-12.7515 A4.9355,4.9355 0 0 1 1.504,-3.6101 ZM2.0827,-7.8601 T2.3414,-6.1262 2.7439,-1.5822 2.8877,1.2279 A5.1178,5.1178 0 0 1 -7.3477,1.2721 T-7.4467,-1.4463 -7.6965,-5.3048 -7.8474,-6.4449 A5.0152,5.0152 0 0 1 2.0827,-7.8601 Z" stroke-linecap="round" fill="#1d1d1d"/></g></g><g transform="matrix(1, 0, 0, 1, 1188.3724, 720.7116)" opacity="1"><g transform="scale(1)"><path d="M-4.7065,0 T-4.7276,-1.2763 -4.9524,-5.122 -5.156,-7.6914 A4.932,4.932 0 0 1 4.6608,-8.6549 T4.7048,-5.6037 4.7276,-1.2763 4.7065,0 A4.7065,4.7065 0 0 1 -4.7065,0 ZM-0.5892,-3.253 T-0.6446,-3.2551 -0.7,-3.2572 A4.9355,4.9355 0 0 1 -0.0163,-13.1045 T0.0388,-13.0989 0.094,-13.0933 A4.932,4.932 0 0 1 -0.5892,-3.253 ZM1.504,-3.6101 T0.2569,-3.059 -0.9901,-2.5079 A5.0152,5.0152 0 0 1 -4.7745,-11.797 T-3.4974,-12.2743 -2.2203,-12.7515 A4.9355,4.9355 0 0 1 1.504,-3.6101 ZM2.0827,-7.8601 T2.3414,-6.1262 2.7439,-1.5822 2.8877,1.2279 A5.1178,5.1178 0 0 1 -7.3477,1.2721 T-7.4467,-1.4463 -7.6965,-5.3048 -7.8474,-6.4449 A5.0152,5.0152 0 0 1 2.0827,-7.8601 Z" stroke-linecap="round" fill="#1d1d1d"/></g></g><g transform="matrix(1, 0, 0, 1, 1188.5015, 710.1096)" opacity="1"><g transform="scale(1)"><path d="M0.0772,4.8185 T-1.0618,4.8566 -4.1156,5.2054 -6.0302,5.5161 A4.9928,4.9928 0 0 1 -7.4787,-4.3639 T-5.2009,-4.5883 -1.5001,-4.8156 -0.0772,-4.8185 A4.8191,4.8191 0 0 1 0.0772,4.8185 ZM-1.8139,-0.144 T-1.5688,1.4447 -1.1421,5.1125 -0.7864,9.0579 -0.3396,12.7714 -0.0187,16.4007 0.0297,18.1829 A5.242,5.242 0 0 1 -10.4497,18.4971 T-10.3954,17.2347 -10.6083,13.7974 -11.0562,9.44 -11.3319,5.2902 -11.561,2.3095 -11.6951,1.2962 A4.9928,4.9928 0 0 1 -1.8139,-0.144 Z" stroke-linecap="round" fill="#1d1d1d"/></g></g><g transform="matrix(1, 0, 0, 1, 1188.5408, 727.68)" opacity="1"><g transform="scale(1)"><path d="M0,4.7855 T-1.477,4.7992 -4.9026,5.1778 -8.5163,6.4555 -11.7748,8.5168 -14.4468,11.4091 -16.6891,16.0505 -17.5914,19.6826 -17.3299,20.4173 A5.2408,5.2408 0 0 1 -27.8101,20.2427 T-27.6242,18.1025 -26.9628,13.9512 -25.4962,9.9981 -23.2528,6.1879 -20.3786,2.747 -16.5064,-0.2929 -12.4357,-2.6839 -8.6962,-4.1324 -4.8656,-4.735 -1.477,-4.7992 0,-4.7855 A4.7855,4.7855 0 0 1 0,4.7855 Z" stroke-linecap="round" fill="#9fa8b2"/></g></g><g transform="matrix(1, 0, 0, 1, 1185.0695, 723.7129)" opacity="1"><g transform="scale(1)"><path d="M-4.7065,0 T-4.7276,-1.2763 -4.7048,-5.6037 -4.6608,-8.6549 A4.932,4.932 0 0 1 5.156,-7.6914 T4.9524,-5.122 4.7276,-1.2763 4.7065,0 A4.7065,4.7065 0 0 1 -4.7065,0 ZM-0.094,-13.0933 T-0.0388,-13.0989 0.0163,-13.1045 A4.9355,4.9355 0 0 1 0.7,-3.2572 T0.6446,-3.2551 0.5892,-3.253 A4.932,4.932 0 0 1 -0.094,-13.0933 ZM2.2203,-12.7515 T3.4974,-12.2743 4.7745,-11.797 A5.0152,5.0152 0 0 1 0.9901,-2.5079 T-0.2569,-3.059 -1.504,-3.6101 A4.9355,4.9355 0 0 1 2.2203,-12.7515 ZM7.8474,-6.4449 T7.6965,-5.3048 7.4467,-1.4463 7.3477,1.2721 A5.1178,5.1178 0 0 1 -2.8877,1.2279 T-2.7439,-1.5822 -2.3414,-6.1262 -2.0827,-7.8601 A5.0152,5.0152 0 0 1 7.8474,-6.4449 Z" stroke-linecap="round" fill="#9fa8b2"/></g></g><g transform="matrix(1, 0, 0, 1, 1163.0022, 745.2843)" opacity="1"><g transform="scale(1)"><path d="M0,4.7227 T-1.3909,4.7534 -5.5471,5.0099 -8.3122,5.2356 A4.9759,4.9759 0 0 1 -9.3707,-4.6597 T-6.0763,-4.7219 -1.3909,-4.7534 0,-4.7227 A4.7227,4.7227 0 0 1 0,4.7227 ZM-4.2234,-1.5648 T-5.1081,-1.7993 -2.8664,-2.3586 0.26,-2.6833 A5.1433,5.1433 0 0 1 0.26,7.6033 T-2.3125,7.4027 -7.3468,7.2508 -11.6341,4.7201 -13.4596,2.1407 A4.9759,4.9759 0 0 1 -4.2234,-1.5648 Z" stroke-linecap="round" fill="#9fa8b2"/></g></g><g transform="matrix(1, 0, 0, 1, 1158.2898, 725.638)" opacity="1"><g transform="scale(1)"><path d="M2.6473,-4.0882 T3.9639,-3.2535 6.8469,-0.8961 9.9106,1.6481 11.4078,2.6695 A5.1099,5.1099 0 0 1 5.2677,10.8393 T3.8957,9.5249 0.9556,6.826 -1.6299,4.7649 -2.6473,4.0882 A4.8705,4.8705 0 0 1 2.6473,-4.0882 ZM5.5379,2.4798 T7.2036,1.4446 9.9765,-0.4474 11.0836,-1.3042 A5.22,5.22 0 0 1 17.1554,7.1887 T14.767,8.6466 11.7581,10.5668 11.1376,11.029 A5.1099,5.1099 0 0 1 5.5379,2.4798 ZM10.8271,6.993 T9.6903,6.0883 7.0037,3.7361 3.3489,0.4318 1.244,-1.4251 A5.336,5.336 0 0 1 9.0079,-8.7472 T10.4546,-7.1508 13.6587,-4.1619 16.4141,-1.9389 17.412,-1.1085 A5.22,5.22 0 0 1 10.8271,6.993 ZM8.8268,-1.2421 T7.0641,0.4754 5.3014,2.1928 A5.3654,5.3654 0 0 1 -2.1411,-5.5378 T-0.358,-7.234 1.4251,-8.9302 A5.336,5.336 0 0 1 8.8268,-1.2421 ZM3.9814,-6.4706 T5.223,-5.8565 8.3278,-4.1605 11.6072,-1.9557 13.0231,-0.8328 A5.3684,5.3684 0 0 1 6.4969,7.6928 T4.14,6.0681 0.481,3.7845 -0.8211,3.1256 A5.3654,5.3654 0 0 1 3.9814,-6.4706 Z" stroke-linecap="round" fill="#9fa8b2"/></g></g><g transform="matrix(1, 0, 0, 1, 1188.5589, 732.3831)" opacity="1"><g transform="scale(1)"><path d="M0,4.8577 T-1.2932,4.8791 -4.5926,5.2948 -8.0762,6.9441 -10.8816,10.0254 -12.6507,13.9102 -12.9256,16.3199 -12.7596,16.6711 A5.2808,5.2808 0 0 1 -23.0204,14.1689 T-22.3781,11.7186 -20.9337,7.3598 -18.8978,3.9416 -16.4168,0.9824 -13.4281,-1.6 -8.9899,-3.5852 -4.4399,-4.669 -1.2932,-4.8791 0,-4.8577 A4.8577,4.8577 0 0 1 0,4.8577 Z" stroke-linecap="round" fill="#9fa8b2"/></g></g><g transform="matrix(1, 0, 0, 1, 1160.5225, 745.4024)" opacity="1"><g transform="scale(1)"><path d="M0,4.7227 T-1.3909,4.7534 -5.5471,5.0099 -8.3122,5.2356 A4.9759,4.9759 0 0 1 -9.3707,-4.6597 T-6.0763,-4.7219 -1.3909,-4.7534 0,-4.7227 A4.7227,4.7227 0 0 1 0,4.7227 ZM-4.2234,-1.5648 T-5.1081,-1.7993 -2.8664,-2.3586 0.26,-2.6833 A5.1433,5.1433 0 0 1 0.26,7.6033 T-2.3125,7.4027 -7.3468,7.2508 -11.6341,4.7201 -13.4596,2.1407 A4.9759,4.9759 0 0 1 -4.2234,-1.5648 Z" stroke-linecap="round" fill="#9fa8b2"/></g></g><g transform="matrix(1, 0, 0, 1, 1186.0792, 732.5011)" opacity="1"><g transform="scale(1)"><path d="M0,4.8577 T-1.2932,4.8791 -4.5926,5.2948 -8.0762,6.9441 -10.8816,10.0254 -12.6507,13.9102 -12.9256,16.3199 -12.7596,16.6711 A5.2808,5.2808 0 0 1 -23.0204,14.1689 T-22.3781,11.7186 -20.9337,7.3598 -18.8978,3.9416 -16.4168,0.9824 -13.4281,-1.6 -8.9899,-3.5852 -4.4399,-4.669 -1.2932,-4.8791 0,-4.8577 A4.8577,4.8577 0 0 1 0,4.8577 Z" stroke-linecap="round" fill="#9fa8b2"/></g></g><g transform="matrix(1, 0, 0, 1, 1160.5225, 745.4024)" opacity="1"><g transform="scale(1)"><path d="M0,4.7227 T-1.3909,4.7534 -5.5471,5.0099 -8.3122,5.2356 A4.9759,4.9759 0 0 1 -9.3707,-4.6597 T-6.0763,-4.7219 -1.3909,-4.7534 0,-4.7227 A4.7227,4.7227 0 0 1 0,4.7227 ZM-4.2234,-1.5648 T-5.1081,-1.7993 -2.8664,-2.3586 0.26,-2.6833 A5.1433,5.1433 0 0 1 0.26,7.6033 T-2.3125,7.4027 -7.3468,7.2508 -11.6341,4.7201 -13.4596,2.1407 A4.9759,4.9759 0 0 1 -4.2234,-1.5648 Z" stroke-linecap="round" fill="#9fa8b2"/></g></g><g transform="matrix(1, 0, 0, 1, 1186.0792, 732.5011)" opacity="1"><g transform="scale(1)"><path d="M0,4.8577 T-1.2932,4.8791 -4.5926,5.2948 -8.0762,6.9441 -10.8816,10.0254 -12.6507,13.9102 -12.9256,16.3199 -12.7596,16.6711 A5.2808,5.2808 0 0 1 -23.0204,14.1689 T-22.3781,11.7186 -20.9337,7.3598 -18.8978,3.9416 -16.4168,0.9824 -13.4281,-1.6 -8.9899,-3.5852 -4.4399,-4.669 -1.2932,-4.8791 0,-4.8577 A4.8577,4.8577 0 0 1 0,4.8577 Z" stroke-linecap="round" fill="#9fa8b2"/></g></g><g transform="matrix(1, 0, 0, 1, 1188.3227, 734.7447)" opacity="1"><g transform="scale(1)"><path d="M0,4.8577 T-1.2932,4.8791 -4.5926,5.2948 -8.0762,6.9441 -10.8816,10.0254 -12.6507,13.9102 -12.9256,16.3199 -12.7596,16.6711 A5.2808,5.2808 0 0 1 -23.0204,14.1689 T-22.3781,11.7186 -20.9337,7.3598 -18.8978,3.9416 -16.4168,0.9824 -13.4281,-1.6 -8.9899,-3.5852 -4.4399,-4.669 -1.2932,-4.8791 0,-4.8577 A4.8577,4.8577 0 0 1 0,4.8577 Z" stroke-linecap="round" fill="#9fa8b2"/></g></g><g transform="matrix(1, 0, 0, 1, 1188.5408, 727.68)" opacity="1"><g transform="scale(1)"><path d="M0,4.7855 T-1.477,4.7992 -4.9026,5.1778 -8.5163,6.4555 -11.7748,8.5168 -14.4468,11.4091 -16.6891,16.0505 -17.5914,19.6826 -17.3299,20.4173 A5.2408,5.2408 0 0 1 -27.8101,20.2427 T-27.6242,18.1025 -26.9628,13.9512 -25.4962,9.9981 -23.2528,6.1879 -20.3786,2.747 -16.5064,-0.2929 -12.4357,-2.6839 -8.6962,-4.1324 -4.8656,-4.735 -1.477,-4.7992 0,-4.7855 A4.7855,4.7855 0 0 1 0,4.7855 Z" stroke-linecap="round" fill="#9fa8b2"/></g></g><g transform="matrix(1, 0, 0, 1, 1185.0695, 723.7129)" opacity="1"><g transform="scale(1)"><path d="M-4.7065,0 T-4.7276,-1.2763 -4.7048,-5.6037 -4.6608,-8.6549 A4.932,4.932 0 0 1 5.156,-7.6914 T4.9524,-5.122 4.7276,-1.2763 4.7065,0 A4.7065,4.7065 0 0 1 -4.7065,0 ZM-0.094,-13.0933 T-0.0388,-13.0989 0.0163,-13.1045 A4.9355,4.9355 0 0 1 0.7,-3.2572 T0.6446,-3.2551 0.5892,-3.253 A4.932,4.932 0 0 1 -0.094,-13.0933 ZM2.2203,-12.7515 T3.4974,-12.2743 4.7745,-11.797 A5.0152,5.0152 0 0 1 0.9901,-2.5079 T-0.2569,-3.059 -1.504,-3.6101 A4.9355,4.9355 0 0 1 2.2203,-12.7515 ZM7.8474,-6.4449 T7.6965,-5.3048 7.4467,-1.4463 7.3477,1.2721 A5.1178,5.1178 0 0 1 -2.8877,1.2279 T-2.7439,-1.5822 -2.3414,-6.1262 -2.0827,-7.8601 A5.0152,5.0152 0 0 1 7.8474,-6.4449 Z" stroke-linecap="round" fill="#9fa8b2"/></g></g><g transform="matrix(1, 0, 0, 1, 1163.0022, 745.2843)" opacity="1"><g transform="scale(1)"><path d="M0,4.7227 T-1.3909,4.7534 -5.5471,5.0099 -8.3122,5.2356 A4.9759,4.9759 0 0 1 -9.3707,-4.6597 T-6.0763,-4.7219 -1.3909,-4.7534 0,-4.7227 A4.7227,4.7227 0 0 1 0,4.7227 ZM-4.2234,-1.5648 T-5.1081,-1.7993 -2.8664,-2.3586 0.26,-2.6833 A5.1433,5.1433 0 0 1 0.26,7.6033 T-2.3125,7.4027 -7.3468,7.2508 -11.6341,4.7201 -13.4596,2.1407 A4.9759,4.9759 0 0 1 -4.2234,-1.5648 Z" stroke-linecap="round" fill="#9fa8b2"/></g></g><g transform="matrix(1, 0, 0, 1, 1188.5589, 732.3831)" opacity="1"><g transform="scale(1)"><path d="M0,4.8577 T-1.2932,4.8791 -4.5926,5.2948 -8.0762,6.9441 -10.8816,10.0254 -12.6507,13.9102 -12.9256,16.3199 -12.7596,16.6711 A5.2808,5.2808 0 0 1 -23.0204,14.1689 T-22.3781,11.7186 -20.9337,7.3598 -18.8978,3.9416 -16.4168,0.9824 -13.4281,-1.6 -8.9899,-3.5852 -4.4399,-4.669 -1.2932,-4.8791 0,-4.8577 A4.8577,4.8577 0 0 1 0,4.8577 Z" stroke-linecap="round" fill="#9fa8b2"/></g></g><g transform="matrix(1, 0, 0, 1, 1184.9405, 713.1108)" opacity="1"><g transform="scale(1)"><path d="M0.0772,-4.8185 T1.5001,-4.8156 5.2009,-4.5883 7.4787,-4.3639 A4.9928,4.9928 0 0 1 6.0302,5.5161 T4.1156,5.2054 1.0618,4.8566 -0.0772,4.8185 A4.8191,4.8191 0 0 1 0.0772,-4.8185 ZM11.6951,1.2962 T11.561,2.3095 11.3319,5.2902 11.0562,9.44 10.6083,13.7974 10.3954,17.2347 10.4497,18.4971 A5.242,5.242 0 0 1 -0.0297,18.1829 T0.0187,16.4007 0.3396,12.7714 0.7864,9.0579 1.1421,5.1125 1.5688,1.4447 1.8139,-0.144 A4.9928,4.9928 0 0 1 11.6951,1.2962 Z" stroke-linecap="round" fill="#9fa8b2"/></g></g><g transform="matrix(1, 0, 0, 1, 1151.4144, 745.1505)" opacity="1"><g transform="scale(1)"><path d="M4.8129,-0.2018 T4.8852,0.9864 5.2903,3.6739 5.6232,5.1733 A4.978,4.978 0 0 1 -4.1347,7.1496 T-4.4386,5.0495 -4.7777,1.5756 -4.8129,0.2018 A4.8171,4.8171 0 0 1 4.8129,-0.2018 ZM0.7403,1.1834 T2.1963,1.1568 5.6894,1.0751 9.5886,0.9021 13.3194,0.5007 17.209,0.1364 19.23,0.0555 A5.2352,5.2352 0 0 1 19.41,10.5245 T17.3119,10.6207 13.2275,10.9149 9.1181,11.2042 5.0023,11.242 1.8789,11.164 0.7483,11.1395 A4.978,4.978 0 0 1 0.7403,1.1834 Z" stroke-linecap="round" fill="#9fa8b2"/></g></g><g transform="matrix(1, 0, 0, 1, 1190.8024, 734.6266)" opacity="1"><g transform="scale(1)"><path d="M0,4.8577 T-1.2932,4.8791 -4.5926,5.2948 -8.0762,6.9441 -10.8816,10.0254 -12.6507,13.9102 -12.9256,16.3199 -12.7596,16.6711 A5.2808,5.2808 0 0 1 -23.0204,14.1689 T-22.3781,11.7186 -20.9337,7.3598 -18.8978,3.9416 -16.4168,0.9824 -13.4281,-1.6 -8.9899,-3.5852 -4.4399,-4.669 -1.2932,-4.8791 0,-4.8577 A4.8577,4.8577 0 0 1 0,4.8577 Z" stroke-linecap="round" fill="#9fa8b2"/></g></g><g transform="matrix(1, 0, 0, 1, 1160.2721, 731.1696)" opacity="1"><g transform="scale(1)"><path d="M1.2785,-1.785 T1.8328,-1.4134 3.3539,-0.212 4.3206,0.6178 A2.3076,2.3076 0 0 1 1.1194,3.9422 T0.433,3.2562 -0.7659,2.1776 -1.2785,1.785 A2.1957,2.1957 0 0 1 1.2785,-1.785 Z" stroke-linecap="round" fill="#1d1d1d"/></g></g><g transform="matrix(1, 0, 0, 1, 1158.2898, 725.638)" opacity="1"><g transform="scale(1)"><path d="M2.6473,-4.0882 T3.9639,-3.2535 6.8469,-0.8961 9.9106,1.6481 11.4078,2.6695 A5.1099,5.1099 0 0 1 5.2677,10.8393 T3.8957,9.5249 0.9556,6.826 -1.6299,4.7649 -2.6473,4.0882 A4.8705,4.8705 0 0 1 2.6473,-4.0882 ZM5.5379,2.4798 T7.2036,1.4446 9.9765,-0.4474 11.0836,-1.3042 A5.22,5.22 0 0 1 17.1554,7.1887 T14.767,8.6466 11.7581,10.5668 11.1376,11.029 A5.1099,5.1099 0 0 1 5.5379,2.4798 ZM10.8271,6.993 T9.6903,6.0883 7.0037,3.7361 3.3489,0.4318 1.244,-1.4251 A5.336,5.336 0 0 1 9.0079,-8.7472 T10.4546,-7.1508 13.6587,-4.1619 16.4141,-1.9389 17.412,-1.1085 A5.22,5.22 0 0 1 10.8271,6.993 ZM8.8268,-1.2421 T7.0641,0.4754 5.3014,2.1928 A5.3654,5.3654 0 0 1 -2.1411,-5.5378 T-0.358,-7.234 1.4251,-8.9302 A5.336,5.336 0 0 1 8.8268,-1.2421 ZM3.9814,-6.4706 T5.223,-5.8565 8.3278,-4.1605 11.6072,-1.9557 13.0231,-0.8328 A5.3684,5.3684 0 0 1 6.4969,7.6928 T4.14,6.0681 0.481,3.7845 -0.8211,3.1256 A5.3654,5.3654 0 0 1 3.9814,-6.4706 Z" stroke-linecap="round" fill="#9fa8b2"/></g></g></svg>