<svg xmlns="http://www.w3.org/2000/svg" direction="ltr" width="74.87485856918761" height="77.41841225300107" viewBox="1330.5909720672562 815.588498063711 74.87485856918761 77.41841225300107" stroke-linecap="round" stroke-linejoin="round" data-color-mode="light" class="tl-container tl-theme__force-sRGB tl-theme__light" style="background-color: rgb(249, 250, 251);"><defs/><g transform="matrix(1, 0, 0, 1, 1366.9957, 851.0572)" opacity="1"><g transform="scale(1)"><path d="M2.3027,0.0372 T2.3033,0.7677 1.256,1.231 0.191,0.963 0.1737,0.962 A2.4916,2.4916 0 0 1 5.0463,-0.082 T4.893,1.7496 3.7105,4.3623 1.7839,5.4203 -0.0677,5.4842 -1.6917,4.4162 -2.3557,2.467 -2.3265,0.6678 -2.3027,-0.0372 A2.303,2.303 0 0 1 2.3027,0.0372 Z" stroke-linecap="round" fill="#9fa8b2"/></g></g><g transform="matrix(1, 0, 0, 1, 1364.081, 849.8985)" opacity="1"><g transform="scale(1)"><path d="M2.3521,0.094 T2.3213,0.9732 2.2817,2.9932 3.0012,5.1012 4.488,7.0451 5.6104,9.1566 5.9746,10.2913 A2.5316,2.5316 0 0 1 1.1824,11.9255 T0.6411,10.7112 -0.6193,8.678 -1.9353,6.8861 -2.5433,4.7841 -2.4929,2.6628 -2.3917,0.7883 -2.3521,-0.094 A2.354,2.354 0 0 1 2.3521,0.094 ZM1.6974,9.4143 T2.2601,8.7806 3.592,7.28 5.0493,5.7201 6.0419,4.0064 6.4691,1.9912 6.6841,0.01 6.7593,-1.4746 6.7422,-1.9725 A2.5401,2.5401 0 0 1 11.8224,-1.9844 T11.8083,-1.2059 11.6884,0.7313 11.418,2.9722 11.0442,5.0846 10.182,7.2707 8.7879,9.1666 7.4017,10.6433 6.1081,12.0914 5.4596,12.8026 A2.5316,2.5316 0 0 1 1.6974,9.4143 ZM9.0605,0.552 T8.1686,0.4689 6.2452,0.3692 3.9191,0.331 1.3305,0.2437 -0.7594,0.1314 -1.5553,0.0848 A2.3957,2.3957 0 0 1 -1.4247,-4.7048 T-0.6274,-4.7079 1.417,-4.6985 3.9627,-4.694 6.3455,-4.6915 8.4671,-4.5949 9.5042,-4.5088 A2.5401,2.5401 0 0 1 9.0605,0.552 Z" stroke-linecap="round" fill="#1d1d1d"/></g></g></svg>