<svg xmlns="http://www.w3.org/2000/svg" direction="ltr" width="195.77999999999997" height="65.60000000000002" viewBox="1317.0788969218784 820.471919323714 195.77999999999997 65.60000000000002" stroke-linecap="round" stroke-linejoin="round" data-color-mode="light" class="tl-container tl-theme__force-sRGB tl-theme__light" style="background-color: rgb(249, 250, 251);"><defs/><g transform="matrix(1, 0, 0, 1, 1349.0789, 854.0719)" opacity="1"><g transform="scale(1)"><path d="M-0.0047,-1.8028 T1.742,-1.7222 5.3165,-1.6161 9.3618,-1.5915 13.78,-1.5836 17.8777,-1.5817 21.4574,-1.601 24.4582,-1.6504 27.0536,-1.7179 29.2889,-1.8021 31.3748,-1.8585 33.5596,-1.8703 35.5968,-1.8771 37.5343,-1.8689 40.6071,-1.8418 44.5143,-1.7775 48.1467,-1.7045 52.1681,-1.6507 56.8615,-1.6433 61.5639,-1.6636 65.9221,-1.6773 69.831,-1.7057 72.9071,-1.7626 75.4388,-1.8463 77.924,-1.9116 80.5176,-1.8985 83.0275,-1.8581 85.4838,-1.8486 87.7485,-1.8922 90.3644,-2.0572 93.3446,-2.2771 95.8794,-2.4846 98.1543,-2.5821 100.6667,-2.5105 103.3278,-2.4229 105.5467,-2.4178 107.649,-2.5236 111.641,-2.5185 116.1337,-2.3581 119.6361,-2.3097 122.9387,-2.3971 125.8698,-2.6686 128.3934,-3.0128 130.5086,-3.3366 131.5797,-3.522 A1.9324,1.9324 0 0 1 131.9803,0.322 T130.7569,0.3522 128.5509,0.3253 126.0736,0.2763 123.0918,0.4204 119.6972,0.6878 116.136,0.8938 111.6428,1.0593 107.6535,1.068 105.5535,0.9686 103.3384,0.9829 100.6903,1.0872 98.2294,1.1895 96.0046,1.2157 93.4528,1.1814 90.4209,1.1091 87.7523,1.0431 85.4409,1.0002 82.9472,0.9357 80.4737,0.8316 77.9384,0.7634 75.4632,0.7248 72.9421,0.6901 69.8649,0.7234 65.9495,0.8021 61.6,0.8846 56.8922,0.9993 52.192,1.1207 48.1831,1.2415 44.5227,1.4041 40.5409,1.4652 37.4271,1.3775 35.5183,1.2587 33.5028,1.1526 31.3475,1.0589 29.3028,0.9609 27.0801,0.9008 24.4983,0.8862 21.5028,0.9337 17.9159,1.0425 13.827,1.1625 9.4245,1.3203 5.3526,1.52 1.751,1.713 0.0047,1.8028 A1.8028,1.8028 0 0 1 -0.0047,-1.8028 Z" stroke-linecap="round" fill="#1d1d1d"/></g></g></svg>