<svg xmlns="http://www.w3.org/2000/svg" direction="ltr" width="378.083284752169" height="107.75873275295555" viewBox="1159.4605730056323 670.8231748247969 378.083284752169 107.75873275295555" stroke-linecap="round" stroke-linejoin="round" data-color-mode="light" class="tl-container tl-theme__force-sRGB tl-theme__light" style="background-color: rgb(249, 250, 251);"><defs/><g transform="matrix(1, 0, 0, 1, 1206.7331, 743.4009)" opacity="1"><g transform="scale(1)"><path d="M0.1707,-1.8133 T1.5689,-1.6144 4.4265,-1.2493 7.6889,-0.9399 11.8896,-0.7061 16.8401,-0.4897 21.4686,-0.2256 25.2798,0.0255 28.3928,0.2204 31.0199,0.3705 33.5537,0.5365 36.0818,0.7109 38.7542,0.8877 41.7284,1.0642 45.0981,1.1552 48.5362,1.1768 51.5692,1.162 54.5625,1.1192 57.5854,1.0491 60.5358,0.9794 63.4138,0.944 65.8289,0.8917 68.7961,0.7861 72.2475,0.7706 75.7768,0.862 80.0188,0.9282 84.6864,0.9761 89.2315,1.0245 93.5426,1.1326 97.796,1.2689 102.738,1.4031 109.2673,1.524 116.3396,1.5914 123.672,1.6431 131.1338,1.7178 137.5967,1.8207 142.9576,1.9181 147.6279,1.9828 152.417,2.0182 157.7167,2.0058 163.674,1.9672 169.8844,1.9167 175.1787,1.8506 179.7321,1.7465 184.2366,1.6101 188.6008,1.5151 192.5895,1.4794 196.0886,1.4805 199.3945,1.4857 202.4662,1.4463 205.1555,1.3486 207.7991,1.247 210.5493,1.175 213.5695,1.1488 216.6164,1.1428 219.7165,1.1432 223.3355,1.129 228.7135,1.1432 237.8145,1.254 248.4335,1.3345 257.3621,1.3022 263.7888,1.2219 267.7408,1.1494 270.4604,1.0696 272.5842,0.9768 274.526,0.9709 276.6546,1.0643 279.5522,1.0905 283.4165,1.0076 286.5776,0.9173 289.2409,0.7274 291.8873,0.4086 294.0431,0.1392 296.1468,-0.0276 297.1534,-0.0917 A2.1717,2.1717 0 0 1 297.1866,4.2517 T295.6417,4.2186 293.009,4.1555 290.806,4.1468 288.7246,4.2051 286.6594,4.2722 284.4003,4.3298 282.2874,4.351 280.3914,4.3137 278.5068,4.205 276.4288,4.0282 273.4731,3.7271 270.4849,3.4768 267.7855,3.461 263.8216,3.5397 257.3732,3.6285 248.4184,3.6723 237.7897,3.6075 228.7214,3.5185 223.3572,3.5342 219.7277,3.5897 216.6368,3.6176 213.6092,3.6622 210.6014,3.7291 207.8535,3.7695 205.2016,3.7823 202.4818,3.786 199.3908,3.782 196.0875,3.7769 192.6092,3.7757 188.6503,3.8112 184.3061,3.906 179.785,4.0429 175.2076,4.148 169.9036,4.2147 163.6896,4.266 157.7219,4.3056 152.3999,4.3195 147.597,4.286 142.9167,4.2239 137.5601,4.1303 131.1115,4.0328 123.6572,3.9655 116.3197,3.9237 109.2253,3.8697 102.6803,3.7675 97.7296,3.6591 93.4964,3.559 89.2231,3.5007 84.6855,3.52 80.0169,3.5647 75.7722,3.6249 72.2344,3.7053 68.7629,3.6455 65.8023,3.467 63.4321,3.3717 60.5984,3.3829 57.6512,3.466 54.6023,3.5594 51.5895,3.6161 48.5443,3.6498 45.0591,3.6939 41.6116,3.6918 38.5757,3.6052 35.858,3.4323 33.3313,3.1901 30.8316,2.9342 28.2377,2.7026 25.1399,2.5145 21.3482,2.3381 16.7617,2.1767 11.7889,2.0972 7.5139,2.047 4.165,1.9769 1.24,1.8789 -0.1707,1.8133 A1.8214,1.8214 0 0 1 0.1707,-1.8133 Z" stroke-linecap="round" fill="#1d1d1d"/></g></g><g transform="matrix(1, 0, 0, 1, 1191.4606, 702.8232)" opacity="1"><g transform="scale(1)"><path d="M0.1668,-1.7986 T1.6345,-1.5809 4.6349,-1.193 8.0651,-0.8805 12.4834,-0.6492 17.6828,-0.4337 22.5446,-0.1645 26.5495,0.0954 29.8183,0.3095 32.5811,0.4888 35.2425,0.6785 37.8963,0.8684 40.7127,1.0585 43.8448,1.2352 47.3807,1.3114 50.9822,1.3198 54.1691,1.3126 57.3255,1.2752 60.5052,1.2001 63.6026,1.1287 66.6237,1.0982 69.1535,1.0533 71.2086,0.9723 73.2365,0.9019 75.8909,0.9203 79.6013,1.0011 84.0715,1.0595 88.9773,1.1016 93.7481,1.1481 98.2746,1.2566 102.7403,1.3925 107.9387,1.533 114.8037,1.6639 122.2287,1.7365 129.9259,1.7885 137.7622,1.8656 144.5474,1.9742 150.1817,2.0771 155.0967,2.1469 160.128,2.1851 165.6875,2.1741 171.9457,2.1364 178.4712,2.0795 184.0328,2.003 188.8216,1.891 193.5587,1.7458 198.1428,1.6436 202.3264,1.604 206.0006,1.6053 209.4749,1.6129 212.7058,1.5856 215.5312,1.5069 218.3024,1.4155 221.1927,1.3535 224.3725,1.326 227.5775,1.3148 230.8299,1.3113 234.6273,1.2817 240.2797,1.2828 249.8404,1.3893 260.9973,1.4685 270.3828,1.4322 277.14,1.3469 281.2929,1.2711 284.1479,1.1968 286.3815,1.1119 288.4169,1.1128 290.6401,1.2163 292.765,1.2829 295.6193,1.2143 298.7361,1.1323 301.0839,1.0873 303.1775,0.9776 305.2701,0.7563 307.3546,0.4747 309.3306,0.2335 311.2653,0.0747 312.1807,0.0232 A2.1569,2.1569 0 0 1 312.2193,4.3368 T310.6004,4.3089 307.8233,4.2426 305.4967,4.2215 303.3195,4.2753 301.1608,4.3441 298.7932,4.4092 296.5768,4.4377 294.5849,4.4053 292.6007,4.2996 290.422,4.1251 288.2713,3.9028 286.3572,3.699 284.1722,3.5813 281.3356,3.5725 277.172,3.6506 270.3934,3.7391 260.9825,3.7794 249.8169,3.7059 240.2887,3.6072 234.6487,3.6168 230.84,3.6614 227.596,3.6853 224.4082,3.7244 221.2433,3.7894 218.3547,3.8472 215.5743,3.8753 212.7212,3.899 209.4699,3.9091 205.9993,3.9016 202.3473,3.9003 198.1934,3.9396 193.6292,4.0414 188.8757,4.1873 184.0644,4.3001 178.4918,4.3772 171.9602,4.4348 165.6918,4.4735 160.1105,4.4857 155.0649,4.4492 150.1404,4.3816 144.5106,4.2822 137.74,4.1783 129.9114,4.1076 122.208,4.0642 114.7599,4.0033 107.8809,3.8887 102.6764,3.7709 98.2289,3.6666 93.7389,3.6018 88.9765,3.6147 84.0698,3.6538 79.5972,3.7065 75.8794,3.7769 73.2114,3.7761 71.172,3.6705 69.1287,3.5331 66.6393,3.4433 63.6611,3.456 60.5671,3.5395 57.3614,3.6318 54.1866,3.6924 50.991,3.7313 47.3443,3.7657 43.7343,3.7473 40.5453,3.6496 37.6851,3.4776 35.0258,3.2367 32.3964,2.978 29.6667,2.7523 26.4098,2.5655 22.4258,2.3736 17.6062,2.1976 12.3855,2.1063 7.8925,2.0417 4.3801,1.9529 1.3159,1.8545 -0.1668,1.7986 A1.8063,1.8063 0 0 1 0.1668,-1.7986 Z" stroke-linecap="round" fill="#1d1d1d"/></g></g><g transform="matrix(1, 0, 0, 1, 1504.0739, 704.9787)" opacity="1"><g transform="scale(1)"><path d="M1.7545,0.0359 T1.7533,0.9277 1.6923,3.1543 1.5695,6.0573 1.4917,9.1173 1.5203,12.0033 1.6279,14.9231 1.7736,18.0837 1.9366,21.0883 2.0592,24.0354 2.1489,26.9699 2.2763,29.3987 2.5604,32.1059 2.9439,34.6543 3.2324,36.516 3.4537,38.8263 3.5647,40.1879 A2.0959,2.0959 0 0 1 -0.6247,40.3321 T-0.542,38.6599 -0.4064,35.9825 -0.3689,33.7027 -0.3881,31.4913 -0.3789,29.4742 -0.3878,27.052 -0.4899,24.154 -0.636,21.2414 -0.8329,18.2523 -1.0974,15.0725 -1.3162,12.1042 -1.4938,9.1625 -1.6655,6.053 -1.7851,3.1052 -1.7898,0.8552 -1.7545,-0.0359 A1.7548,1.7548 0 0 1 1.7545,0.0359 Z" stroke-linecap="round" fill="#1d1d1d"/></g></g></svg>