<svg xmlns="http://www.w3.org/2000/svg" direction="ltr" width="425.862323224447" height="303.59081384775175" viewBox="1109.1362236097148 673.1792774773131 425.862323224447 303.59081384775175" stroke-linecap="round" stroke-linejoin="round" data-color-mode="light" class="tl-container tl-theme__force-sRGB tl-theme__light" style="background-color: rgb(249, 250, 251);"><defs/><g transform="matrix(1, 0, 0, 1, 1164.8426, 706.2601)" opacity="1"><g transform="scale(1)"><path d="M0.2513,8.9046 T-2.2415,9.0131 -7.456,11.3573 -11.7912,16.645 -13.7242,23.1393 -13.5117,30.2623 -10.0942,36.5201 -4.0305,41.0159 2.736,43.5874 9.991,44.1082 16.6934,42.3242 20.7506,37.2621 22.0247,30.4234 21.9138,23.0738 19.2132,16.2562 13.4092,12.2606 6.6695,10.0161 2.818,12.3451 2.3588,19.3938 2.4765,26.6117 6.061,29.6501 11.5356,26.1934 15.2974,21.1017 17.171,18.8612 A9.9283,9.9283 0 0 1 -0.5591,27.8017 T-2.1433,21.9055 -2.6786,12.7583 0.7238,6.7641 6.7245,3.1732 13.7438,3.2095 20.3611,5.6515 26.8098,10.0039 31.5943,16.6813 33.7572,24.4392 33.5187,31.9808 30.6163,38.5804 25.8458,43.8494 19.7085,47.4601 12.4135,48.8187 5.0092,48.7079 -2.0503,47.6508 -9.012,44.9922 -14.5177,39.9097 -16.9694,33.0365 -17.3888,25.8424 -17.5219,18.6842 -17.3175,11.2491 -15.6764,3.8082 -12.4019,-2.7282 -7.6734,-7.71 -1.5488,-10.3618 5.2707,-10.6515 12.1177,-9.139 19.1222,-6.8867 25.8608,-4.2375 31.9472,-0.3971 37.3956,4.957 40.6493,12.0087 41.7049,19.5511 41.975,26.5597 41.7153,33.4708 40.9833,40.4282 39.0176,47.0461 35.2577,52.7942 29.7335,57.5569 22.9606,61.3225 16,63.4271 8.777,63.8854 1.2587,63.4739 -6.0439,61.8739 -12.7927,58.7858 -19.5953,55.4586 -25.5537,51.3432 -29.2421,45.4777 -31.5834,38.5371 -32.9495,30.7094 -32.8314,23.2508 -31.7904,16.4849 -29.3653,9.7057 -25.8202,3.321 -21.6675,-2.0782 -15.8577,-6.2111 -9.0066,-8.3837 -2.8638,-8.8691 -0.2513,-8.9046 A8.9082,8.9082 0 0 1 0.2513,8.9046 ZM17.8976,20.7677 T18.3934,22.7076 18.8893,24.6475 A9.8846,9.8846 0 0 1 -0.2093,29.7525 T-0.7475,27.8239 -1.2857,25.8952 A9.9283,9.9283 0 0 1 17.8976,20.7677 Z" stroke-linecap="round" fill="#f1ac4b"/></g></g><g transform="matrix(1, 0, 0, 1, 1205.4379, 736.7238)" opacity="1"><g transform="scale(1)"><path d="M0.3577,-7.2275 T3.9325,-7.0124 11.3381,-6.5764 18.6935,-6.244 26.127,-6.0222 34.109,-5.838 41.7672,-5.7711 50.3794,-5.9272 59.8089,-6.1669 68.7472,-6.3404 77.2801,-6.5355 85.3499,-6.7655 93.6559,-6.9353 101.5605,-7.0504 109.478,-7.2223 117.3434,-7.5764 125.7736,-8.0078 135.3149,-8.1914 145.2255,-8.0193 154.1201,-7.7757 162.3533,-7.7043 170.3981,-7.8319 177.5719,-8.1893 185.6973,-8.5183 193.609,-8.6179 201.9575,-8.6566 211.4476,-8.7794 220.2561,-8.979 228.0692,-9.093 235.1876,-9.1281 242.3166,-9.0961 249.7549,-9.0771 257.8717,-9.1567 265.564,-9.2255 273.0573,-9.2927 280.6798,-9.3468 287.7271,-9.434 287.2151,-6.7463 282.1673,-7.6322 281.3683,-14.976 281.1077,-19.7673 280.6046,-20.8531 A9.7525,9.7525 0 0 1 298.981,-27.3916 T300.0038,-22.5 300.8166,-14.0124 301.02,-6.5984 301.0274,0.6103 295.9742,6.8454 287.7986,9.657 280.704,9.5655 273.1216,9.4929 265.6446,9.5206 258.1313,9.5807 250.1643,9.5899 242.4853,9.4103 235.1649,9.2006 227.9208,9.1295 220.35,9.085 211.7846,9.1586 202.1781,9.2989 193.7319,9.3908 186.2245,9.4895 178.3635,9.7388 170.7404,9.9834 162.2788,10.0058 153.8081,9.928 144.8139,9.7466 135.2844,9.5727 126.5218,9.685 118.1136,10.0028 109.6991,10.2007 101.5293,10.1593 93.5128,9.995 85.2046,9.7436 77.1383,9.4247 68.3218,8.9903 59.4819,8.3549 50.3629,7.8341 41.7649,7.6675 34.026,7.7317 25.8611,7.8199 18.2287,7.7588 10.7037,7.5936 3.221,7.3664 -0.3577,7.2275 A7.2364,7.2364 0 0 1 0.3577,-7.2275 ZM293.013,-14.9169 T289.748,-13.8495 282.4325,-12.6589 274.513,-12.7625 266.1366,-12.9278 257.472,-13.1199 249.2535,-13.5591 241.2095,-13.8767 233.7452,-14.1105 225.8265,-13.4156 217.7084,-12.0335 210.182,-11.0801 201.8713,-10.6708 193.9818,-10.714 186.6651,-10.992 178.9148,-11.7485 170.8077,-13.2069 162.7955,-14.8568 155.3002,-15.6584 147.5932,-15.7263 139.6179,-15.6709 131.4422,-15.5282 123.4009,-15.5601 115.1731,-15.5964 106.5208,-15.4069 98.016,-15.1423 89.0866,-14.8778 80.932,-14.6941 73.3175,-14.571 65.3881,-14.4444 57.9104,-14.4364 50.1999,-14.6126 42.1429,-14.9796 33.6772,-15.7115 25.5519,-16.4696 18.1917,-16.763 11.115,-16.8747 11.3824,-18.7711 19.9281,-20.6517 29.821,-20.7041 39.5925,-20.3701 48.7414,-19.8203 57.6631,-19.5499 65.6205,-19.469 73.862,-19.3684 82.2813,-19.2785 90.9481,-19.1607 101.4173,-18.9906 112.2153,-18.8715 121.5825,-19.0214 129.3835,-19.3217 136.7991,-19.4352 145.6422,-19.006 155.7778,-18.1565 165.1672,-17.6772 175.2748,-17.7535 186.4127,-17.9593 197.3971,-18.1526 206.853,-18.4082 214.9965,-18.6774 222.9945,-18.8717 230.6265,-18.8002 237.9136,-18.5775 245.5959,-18.5597 253.3626,-18.6193 261.3727,-18.727 270.0355,-19.067 280.607,-19.471 286.9717,-19.6538 A8.9558,8.9558 0 0 1 287.3483,-1.7462 T283.7102,-1.6425 276.5548,-1.4753 269.5862,-1.3306 261.5079,-1.1902 253.406,-1.1546 245.4406,-1.204 237.3402,-1.3489 228.7702,-1.6529 220.3683,-1.9093 212.2945,-1.9987 202.7975,-1.8529 192.3715,-1.4305 181.7649,-0.9781 171.6792,-0.7676 163.0986,-0.9464 154.4635,-1.4967 144.6564,-2.1501 134.9434,-2.5065 126.1438,-2.4519 117.5385,-2.204 106.9065,-1.9162 95.8546,-1.6257 86.1188,-1.424 76.8746,-1.3927 67.1013,-1.4623 57.4309,-1.5406 48.0469,-1.6371 39.0091,-1.7804 29.9605,-1.7536 20.9606,-1.4746 12.6805,-1.4475 4.906,-2.2043 -2.4829,-6.1694 -6.8544,-13.7219 -7.2975,-21.7015 -4.8098,-29.1471 1.1266,-34.4115 8.4004,-35.9639 15.578,-35.775 22.7932,-35.4376 30.1323,-34.9047 38.2273,-34.103 46.8264,-33.4728 55.259,-33.0978 63.0656,-32.84 71.1344,-32.7939 79.8012,-32.7959 88.5902,-32.9225 97.1798,-33.3055 105.6233,-33.8722 113.6052,-34.3549 121.2083,-34.4811 129.1648,-34.4759 136.6017,-34.5768 144.0064,-34.6484 152.1687,-34.6047 159.8539,-34.2785 167.0745,-33.2152 174.5215,-31.7208 182.4586,-30.5022 190.4972,-29.8161 197.9644,-29.5794 205.4419,-29.7165 213.1888,-30.5793 221.1453,-32.099 228.9958,-33.1679 236.4926,-33.2316 243.7284,-32.9817 250.828,-32.76 257.8294,-32.4811 264.9568,-32.4386 272.4687,-32.3741 279.9372,-32.1472 285.0276,-32.7125 286.5726,-33.3278 A9.7525,9.7525 0 0 1 293.013,-14.9169 Z" stroke-linecap="round" fill="#f1ac4b"/></g></g><g transform="matrix(1, 0, 0, 1, 1143.2021, 757.4664)" opacity="1"><g transform="scale(1)"><path d="M8.6523,0.3909 T8.5868,2.6916 8.479,8.7108 8.5177,16.5154 8.6024,24.3676 8.8026,32.2166 9.3575,39.7139 9.9289,47.2352 10.3466,55.7907 10.779,64.3531 11.2341,72.2495 11.5266,80.0181 11.6246,87.8834 11.7887,95.3859 11.9669,103.4145 12.153,111.5384 12.4658,119.1754 12.8619,126.9937 13.2441,135.6152 13.4307,145.3591 13.4293,155.1518 13.2004,163.5658 12.5082,170.9656 16.0138,174.3221 24.1254,174.1744 32.4705,174.4966 41.128,174.622 51.0658,174.718 60.5111,174.7809 68.7868,174.7895 77.2707,174.7573 85.3613,175.3264 93.7308,176.407 102.2347,177.2636 110.162,177.859 117.829,178.1884 126.2718,178.3349 134.7774,178.3081 142.402,178.0618 150.2408,177.632 158.4171,177.0811 166.8327,176.5312 174.6133,176.0552 181.7777,175.4012 188.9766,174.4839 197.3101,173.7508 205.8916,173.4153 213.1737,173.2872 220.7091,173.241 228.3387,173.3396 236.4866,173.5031 244.9167,173.4918 252.5134,173.4583 259.6463,173.6282 266.8482,173.91 274.6661,174.2912 283.6943,174.6678 293.0987,174.8844 301.2598,174.8689 308.6508,174.7544 316.5104,174.7985 324.2986,174.7101 332.0073,174.4521 340.6161,174.3903 348.7295,174.509 355.487,174.5864 358.6528,174.5773 A9.5083,9.5083 0 0 1 358.4478,193.5928 T354.929,193.5062 347.9244,193.3108 340.3331,193.1797 332.6594,193.2153 325.3569,193.3795 317.9985,193.3682 310.8216,193.1993 303.7569,193.1294 295.8896,193.1216 286.5097,193.0389 278.0425,192.8652 270.8687,192.564 262.5496,192.1385 253.573,191.816 245.0649,191.768 236.2837,191.8046 226.8032,191.7533 218.2712,191.7476 210.0593,191.8165 201.3094,192.0656 192.6912,192.7829 184.0209,193.7749 175.7416,194.4889 167.8392,194.9248 159.4984,195.3701 151.0671,195.8089 143.0649,196.0792 134.9279,196.195 126.1037,196.1552 117.3753,196.0511 109.167,195.857 100.917,195.4633 92.3482,194.7854 83.4012,193.6425 74.749,192.9958 65.9489,193.0939 56.9017,193.2865 49.0119,193.5065 41.0927,193.6244 31.9816,193.6421 23.6634,193.417 16.3847,193.1314 8.6623,192.8664 0.451,191.0589 -5.5088,185.3139 -7.1826,177.6186 -6.301,170.2664 -5.3253,163.0182 -5.0782,155.1979 -5.2512,145.8531 -5.5699,136.4963 -5.9018,128.1563 -6.2299,119.9969 -6.5621,111.973 -6.7705,103.8248 -6.8886,95.6578 -6.9568,87.9812 -7.0146,80.5207 -7.2957,73.3255 -7.7268,65.3632 -8.1684,56.8074 -8.696,47.7718 -9.3175,39.4106 -9.6778,31.9521 -9.6101,24.2874 -9.444,16.3353 -9.1628,8.1754 -8.7967,1.9544 -8.6523,-0.3909 A8.6611,8.6611 0 0 1 8.6523,0.3909 ZM349.1099,182.9505 T349.3379,180.9963 349.8104,175.5479 350.0699,168.1514 349.8832,160.3235 349.4372,152.0463 348.9909,143.3541 348.6895,135.3506 348.4378,127.2589 348.1476,118.8737 347.8575,111.2954 347.4717,104.1937 347.0246,96.5817 346.7428,88.7987 346.6013,81.3819 346.5353,73.5598 346.5784,66.0012 346.469,58.7402 346.2798,51.0344 346.2467,43.3881 346.1579,35.5662 345.7407,27.5796 345.2191,20.312 344.7144,13.3518 344.0879,5.5856 343.2936,-0.7001 342.8254,-2.7755 A9.7358,9.7358 0 0 1 361.9244,-6.5665 T362.7836,-0.0373 363.9352,10.1535 364.461,17.4235 364.934,24.6032 365.4082,32.1269 365.6364,39.8397 365.588,47.0682 365.6477,54.2105 365.7849,61.8134 365.7822,69.1968 365.7594,76.5949 365.8655,84.1246 366.013,91.2194 366.2839,98.1892 366.6334,105.2248 367.0005,112.8067 367.4238,120.6576 367.7308,128.8408 367.9309,136.6568 368.2306,143.5467 368.77,151.4376 369.228,159.9376 369.355,167.8012 369.0219,175.5559 368.343,182.3447 367.9907,185.2195 A9.5083,9.5083 0 0 1 349.1099,182.9505 ZM351.2153,4.9955 T347.4275,4.5006 339.527,3.4716 331.8011,2.7979 324.6312,2.5782 317.3462,2.4827 309.1801,2.4098 300.3084,2.2717 291.9563,2.3091 283.6855,2.9118 275.1747,3.5755 266.2978,3.736 257.7693,3.7504 249.8318,3.9259 241.8818,4.1319 232.9188,4.2613 222.6233,4.1872 213.4231,3.9811 205.1462,3.9174 197.3407,3.8132 189.8152,3.6035 182.0145,3.4888 174.2984,3.4848 166.0092,3.2526 157.1607,2.7201 148.6623,2.1323 140.1397,1.4827 131.9158,0.8992 124.3093,0.5164 116.555,0.2772 109.0255,0.1203 101.5823,0.0009 93.8699,-0.0863 86.3188,-0.1429 77.9259,-0.4729 73.2069,-0.7861 A9.5712,9.5712 0 0 1 74.6531,-19.8739 T78.9626,-19.5928 86.7312,-19.2405 94.4275,-19.0997 102.0859,-18.962 109.3292,-18.7793 117.2111,-18.5194 125.2492,-18.1211 133.1037,-17.6636 141.4614,-17.1015 149.9353,-16.4299 158.5722,-15.7978 167.0158,-15.2384 174.6157,-14.8966 182.368,-14.6319 190.281,-14.322 197.7506,-14.1038 205.5104,-13.8796 213.8146,-13.5934 222.7046,-13.5172 232.7069,-13.7062 241.5866,-13.8473 249.4513,-13.958 257.4908,-14.1535 265.8459,-14.4052 275.4098,-14.9883 285.1582,-15.9427 294.212,-16.5442 303.2089,-16.6373 311.8024,-16.6959 319.2374,-16.7307 326.672,-16.615 334.0892,-16.2838 341.6329,-15.6262 349.647,-14.7633 353.5345,-14.3375 A9.7358,9.7358 0 0 1 351.2153,4.9955 Z" stroke-linecap="round" fill="#f1ac4b"/></g></g><g transform="matrix(1, 0, 0, 1, 1217.13, 747.14)" opacity="1"><g transform="scale(1)"><path d="M0.069,8.8553 T-2.5535,8.9157 -5.3033,12.6818 -7.2507,19.8657 -11.4655,26.352 -17.022,30.9982 -23.9939,33.4853 -31.5532,34.904 -39.1651,35.5376 -46.5353,35.5315 -53.8182,34.7708 -56.2328,30.8798 -54.2274,31.1276 -50.1534,34.666 -42.9813,34.8158 -35.578,34.2531 -28.2172,32.6563 -20.5744,30.3422 -13.4396,27.4848 -9.0862,19.3431 -7.9246,12.7192 A9.8206,9.8206 0 0 1 11.352,16.4854 T10.836,20.6854 9.3703,28.5138 6.6878,35.2473 2.2963,40.4953 -4.1106,44.5561 -11.1984,47.727 -18.0383,50.1125 -25.967,52.302 -34.246,53.9173 -41.695,54.4729 -48.7985,54.2794 -55.8242,53.2171 -62.7081,51.0707 -68.4087,47.1274 -71.8766,40.8318 -73.4621,33.6747 -73.7349,26.4029 -71.6301,19.359 -65.2012,14.6515 -57.2686,13.837 -50.2324,15.3453 -42.7607,16.2791 -35.2721,15.9395 -28.3499,14.5267 -23.2707,10.2799 -19.6332,3.9198 -15.6467,-2.3656 -9.4102,-7.1876 -2.6876,-8.8749 -0.069,-8.8553 A8.8556,8.8556 0 0 1 0.069,8.8553 ZM1.9801,4.7854 T5.3618,4.899 12.1514,5.1339 19.8685,6.7754 26.153,11.9082 29.1097,19.6502 30.5247,27.4937 30.5244,34.7932 28.5727,41.8673 24.1945,48.3912 18.2679,52.9339 11.7004,56.2937 4.1371,59.7775 -3.4657,62.4996 -10.2916,64.6044 -17.186,66.5359 -24.2687,68.1128 -31.611,68.4666 -39.4512,67.3781 -47.2192,66.1147 -47.5275,64.2374 -39.651,64.2381 -31.8124,66.1366 -24.9886,64.738 -17.9162,60.8684 -11.0428,57.642 -4.3877,56.1214 3.0057,55.808 10.6651,55.3477 17.5034,53.075 22.7587,48.2844 26.3969,42.0272 29.1606,35.2965 28.4328,26.7638 26.4153,21.6334 A9.7288,9.7288 0 0 1 44.8033,15.2707 T45.6709,17.7979 47.8673,23.7683 49.3894,31.1259 48.748,38.4854 45.9342,45.5509 42.5042,52.4826 39.0917,58.648 33.936,64.4431 27.4709,69.3213 20.0495,72.4919 11.8158,74.1772 2.5436,74.7738 -5.7225,76.3986 -11.9435,79.5685 -18.133,82.8001 -24.8413,85.0326 -32.3203,85.3167 -39.941,84.1346 -47.1726,82.305 -54.175,79.5109 -60.987,75.3504 -65.6379,68.3056 -66.8691,59.9591 -64.7277,52.6325 -59.4189,47.5979 -52.5355,46.2103 -45.0628,46.7393 -37.2587,47.7398 -29.5824,48.5125 -21.9644,47.7529 -14.3739,45.5388 -6.4926,42.8337 1.1374,39.5401 7.7912,36.0365 10.9078,30.905 9.8437,23.8429 11.8099,22.5159 11.402,24.6953 4.7076,24.4858 1.4472,24.4193 A9.8206,9.8206 0 0 1 1.9801,4.7854 ZM27.556,23.9104 T25.8785,21.4631 24.201,19.0158 A9.7598,9.7598 0 0 1 40.359,8.0642 T42.0108,10.5289 43.6626,12.9936 A9.7288,9.7288 0 0 1 27.556,23.9104 ZM34.8009,4.1113 T38.3824,5.1518 46.4669,6.844 54.4388,7.7252 62.4351,8.1401 71.5314,8.5564 79.8724,8.9652 87.6636,9.2663 95.2063,9.1626 102.4196,8.8841 109.5385,8.79 117.1816,8.7601 125.7082,8.7727 133.588,8.6719 141.4947,8.4147 149.9744,8.1362 159.0563,7.9611 169.2714,7.9248 178.0846,7.9433 185.4534,7.7192 194.394,6.8477 203.9669,5.4055 212.756,3.6841 221.6415,2.2872 229.949,1.598 237.7919,1.1929 246.1274,1.0591 254.469,1.3998 262.6286,2.2945 269.9962,5.2878 275.4416,10.4373 277.5804,13.2016 A9.4201,9.4201 0 0 1 263.6796,25.9184 T262.1975,23.2908 256.9863,20.2259 249.4081,19.5594 241.7492,19.3377 233.9574,19.5042 226.3434,19.8873 218.9007,20.7762 210.3677,22.3642 201.9908,23.8731 194.6229,24.9292 186.354,25.6297 178.1849,25.8968 170.8592,25.9756 162.5748,26.0789 153.4124,26.2578 145.3285,26.4628 137.5299,26.6136 129.702,26.7672 121.4763,27.0409 112.6589,27.2968 104.0199,27.4169 95.3057,27.6169 87.0612,27.5854 79.0281,27.1955 70.6157,26.7881 61.7396,26.4425 53.3365,26.1438 43.739,25.5111 33.9305,24.001 29.7591,22.9687 A9.7598,9.7598 0 0 1 34.8009,4.1113 Z" stroke-linecap="round" fill="#f1ac4b"/></g></g><g transform="matrix(1, 0, 0, 1, 1487.76, 766.7)" opacity="1"><g transform="scale(1)"><path d="M5.4459,6.5212 T3.1368,8.4328 -2.6146,11.4518 -10.8332,12.988 -20.2601,13.0126 -28.5508,12.3658 -36.5697,12.6393 -45.1848,13.61 -54.1723,14.6456 -63.4722,15.6066 -72.6679,15.9844 -81.0585,16.1026 -88.2895,16.8576 -95.2804,18.3734 -102.8254,20.4008 -110.633,22.1346 -118.9315,23.006 -128.1095,23.2836 -137.0439,23.2059 -145.7978,22.9666 -155.0205,22.5838 -163.9523,22.1169 -171.8663,21.6263 -180.1,21.1639 -188.0952,20.8913 -195.0765,20.8438 -202.2384,20.8739 -208.6704,23.0472 -212.182,21.5772 -209.2184,16.5183 -200.8364,15.0946 -192.7556,15.1377 -185.5637,15.3082 -177.5152,15.6203 -169.6012,16.0553 -160.7606,16.7078 -150.6661,17.4927 -140.2203,18.3852 -129.3684,19.2442 -119.8945,19.8262 -111.9851,20.1036 -104.1906,20.0248 -96.2439,18.886 -88.9194,16.7151 -82.134,14.7741 -74.4638,12.9979 -66.5351,11.3441 -59.0886,10.4779 -51.7618,10.0001 -44.86,9.4524 -38.0253,8.9195 -30.8992,8.5055 -23.581,7.8603 -15.9996,6.9409 -8.4939,6.1592 0.1235,6.5703 8.0257,10.6671 11.4214,17.852 11.6792,25.1093 9.6939,32.2801 4.7263,38.6225 -2.5657,42.8215 -9.8925,45.1559 -18.0552,46.2433 -26.7051,46.5618 -36.2306,46.5228 -47.0868,46.3976 -56.5684,46.3 -66.0463,46.2707 -76.1897,46.1063 -86.1823,46.0175 -94.9779,46.0372 -102.766,46.009 -110.5841,46.0815 -119.6114,46.5263 -129.8466,46.9436 -139.645,47.1213 -149.3646,47.3807 -159.5471,47.6195 -169.0801,47.761 -178.4805,47.9299 -187.2977,48.2333 -194.8458,48.5335 -202.2152,48.7028 -210.2758,48.8985 -219.0333,49.1911 -226.795,49.5139 -233.7508,50.0823 -240.8958,51.3691 -248.7362,53.7591 -256.5679,56.4839 -263.8537,59.0144 -271.3592,61.7152 -279.385,64.6979 -287.3692,67.4169 -295.6635,69.2662 -304.3506,70.1191 -312.1073,70.1675 -319.5248,69.9372 -327.4854,68.299 -331.5087,66.8099 A9.6009,9.6009 0 0 1 -323.4963,49.3597 T-319.6797,50.2203 -312.1064,51.2119 -304.4769,51.2099 -296.7629,50.2773 -289.0329,48.1456 -281.1622,45.3856 -273.2656,42.5681 -265.324,39.7304 -257.8073,37.1648 -250.8946,34.8548 -243.1817,32.9009 -235.0921,31.8403 -227.524,31.4074 -219.4978,31.2111 -211.7525,31.121 -204.7643,31.1216 -197.7029,31.1817 -190.435,31.166 -181.9444,31.1163 -173.2095,31.1049 -164.85,31.0177 -155.3476,30.6905 -145.2107,30.1816 -135.1247,29.6931 -126.0769,29.2638 -118.5678,28.8948 -110.8588,28.7229 -102.7092,28.7338 -94.9621,28.7514 -86.1195,28.8041 -76.1404,28.8179 -66.293,28.6341 -56.8558,28.3173 -47.2319,27.9735 -37.9449,27.6165 -29.0964,27.3978 -20.166,27.0504 -12.4575,25.7825 -5.3466,24.8195 -5.1126,24.9553 -12.2599,25.4726 -20.1882,26.3376 -27.9496,27.0213 -35.0482,27.3872 -42.5194,27.8102 -50.3544,28.3475 -59.0927,29.1591 -67.5431,30.3142 -74.9599,31.7841 -82.2355,33.6597 -89.7673,35.6654 -97.3847,37.0751 -104.7972,37.5015 -112.5673,37.2831 -120.7066,36.8849 -130.2887,36.5288 -141.2523,36.1959 -151.5743,35.8843 -161.2934,35.5288 -170.2374,34.9694 -178.4725,34.4664 -187.1295,34.1929 -195.2298,34.0915 -203.0712,34.2795 -211.3163,34.9493 -219.212,34.729 -226.4518,30.2424 -229.5106,21.9205 -227.2452,14.0467 -223.0784,7.9278 -217.532,3.9937 -210.6182,2.5216 -203.3116,2.2494 -195.5567,2.3937 -187.5846,2.5517 -180.1311,2.8214 -173.0494,3.2777 -165.5036,3.8098 -157.0954,4.2942 -148.105,4.6531 -139.5109,4.9162 -131.2376,5.0378 -123.0889,4.9357 -115.3516,4.3072 -107.4208,2.6325 -99.3845,0.4898 -91.71,-1.1433 -83.7831,-1.965 -75.5768,-2.0677 -67.7772,-2.1753 -59.3033,-2.8966 -50.1834,-3.989 -42.1452,-4.8397 -34.8043,-5.3286 -27.2493,-5.2048 -19.3595,-4.6153 -11.346,-4.5653 -6.4654,-5.6531 -5.4459,-6.5212 A8.4961,8.4961 0 0 1 5.4459,6.5212 ZM-325.1191,48.7844 T-322.3407,49.5218 -314.558,51.6488 -304.7631,54.3671 -295.4664,55.414 -286.4093,54.3412 -278.0605,52.9389 -270.5115,51.96 -262.2795,51.375 -253.9509,51.0108 -245.6031,49.6805 -236.6581,47.9807 -228.2635,47.3508 -219.685,47.0793 -210.7097,46.8467 -200.8689,46.8631 -189.9728,46.9234 -180.9356,46.7177 -172.8236,46.3185 -164.319,45.7277 -156.4688,44.7717 -147.4855,43.9782 -137.7771,43.6372 -129.5092,43.3512 -121.7773,43.0579 -112.4713,42.7841 -103.0773,42.5543 -95.0764,42.083 -87.3382,41.3131 -79.1689,40.4445 -71.155,39.4342 -63.5813,38.6061 -55.7674,38.2672 -47.4176,38.1493 -39.1571,38.1751 -31.0546,38.5566 -23.2911,39.0633 -16.3321,39.2772 -8.4653,39.0431 1.0858,40.2417 7.654,44.991 9.0695,52.0165 7.3117,59.5429 2.7015,65.4231 -3.9448,68.6054 -13.1855,70.3298 -23.1906,71.1323 -31.6703,71.306 -40.5443,71.2009 -49.654,71.2783 -58.482,72.1864 -66.5744,73.5855 -75.3308,74.6656 -86.0971,75.2113 -97.4533,75.2666 -108.7298,75.199 -118.9085,75.2042 -127.7557,75.3199 -137.2823,75.8437 -145.8004,76.507 -148.8142,76.745 A8.2156,8.2156 0 0 1 -150.4458,60.395 T-144.9963,59.7868 -135.8344,59.0426 -127.9553,58.8708 -119.0202,58.8065 -108.8906,58.6776 -97.7666,58.3835 -86.9279,57.8882 -76.2653,57.1035 -66.8493,55.969 -58.897,54.7433 -50.2455,53.9241 -40.5861,53.5538 -30.1314,53.3189 -20.4424,52.7039 -12.5881,51.4768 -7.2859,53.964 -9.6531,57.3464 -17.3759,57.3982 -24.5526,56.9889 -32.0075,56.3964 -40.7065,56.0491 -50.2967,56.0698 -60.0896,56.3769 -68.7713,57.0786 -76.3216,57.9304 -84.7651,58.5809 -93.9201,59.1329 -102.5832,59.5172 -111.7189,59.8952 -120.9513,60.4527 -128.7325,60.8812 -137.0959,61.3214 -146.9245,61.8749 -155.9946,62.6287 -163.9452,63.2551 -172.1844,63.5017 -180.2226,63.7521 -189.6531,64.1701 -200.6149,64.6251 -211.3892,65.1145 -220.5622,65.4686 -228.4644,65.6431 -236.5533,66.3237 -244.1374,67.8734 -252.5873,69.0968 -261.1717,69.4961 -269.5857,70.2462 -277.8809,71.3772 -285.1486,72.683 -292.718,74.1639 -300.5829,73.9511 -309.0989,71.9728 -319.0547,69.8353 -327.1441,68.0625 -329.8859,67.3852 A9.6009,9.6009 0 0 1 -325.1191,48.7844 Z" stroke-linecap="round" fill="#f1ac4b"/></g></g><g transform="matrix(1, 0, 0, 1, 1338.13, 835.27)" opacity="1"><g transform="scale(1)"><path d="M0.5912,7.8531 T-3.2607,8.0148 -13.4347,8.4582 -24.7643,8.9661 -33.1799,9.4376 -42.155,9.8893 -52.9448,10.0844 -64.1128,10.0054 -75.4459,9.8737 -84.9209,9.8507 -93.1561,10.0136 -101.524,10.2759 -109.2536,10.5935 -117.2707,11.2251 -125.9845,12.0999 -134.1736,12.7693 -142.1807,13.2092 -149.8772,13.4802 -157.4003,13.6393 -165.3337,13.7192 -174.1245,13.6174 -182.3146,13.7618 -183.1032,10.5867 -176.553,6.7561 -168.5399,6.9826 -159.8705,8.0482 -151.0901,8.6968 -142.0775,8.856 -131.2395,8.7749 -118.512,8.8102 -105.9787,8.8984 -94.11,8.713 -83.6981,8.1106 -74.6468,7.3373 -66.2129,6.5178 -58.7144,5.8054 -50.4573,5.4709 -39.9893,5.3777 -27.6899,5.1927 -17.1361,5.0821 -8.368,5.2441 1.6444,5.5414 11.4347,5.5581 19.6138,5.1723 26.863,4.7161 36.5526,4.1588 48.0532,3.4298 57.0788,2.5918 64.6099,1.8467 71.8314,0.8956 80.2648,-0.4059 90.0848,-1.3044 100.0172,-1.7965 109.0544,-2.1184 117.9498,-2.0479 127.0511,-2.04 134.7045,-2.2909 142.0069,-2.2437 149.3718,0.0682 155.1828,5.2594 157.9177,11.8518 157.4019,19.0252 154.3458,25.8651 149.2365,30.8262 141.8408,33.44 133.899,34.6401 126.2361,35.1499 118.3989,35.4346 110.642,35.5625 102.5832,35.5178 94.8572,35.2953 87.3953,34.9788 77.9798,34.4705 66.4927,33.8827 56.2635,33.671 48.273,33.7423 40.3836,33.7563 31.4376,33.6994 22.7969,33.5291 14.5585,33.1227 5.3061,32.6958 -4.0585,32.4038 -14.1255,32.1618 -25.1607,32.0531 -34.4407,32.1265 -43.8382,32.162 -54.6069,31.9623 -65.2012,31.766 -76.6737,31.7437 -88.9615,31.7891 -100.8283,31.8698 -111.4532,32.0028 -120.8591,32.1637 -129.7529,32.3864 -137.6563,32.6296 -145.1085,32.7213 -153.0632,32.6789 -160.6029,33.8427 -168.1824,35.8659 -170.5238,33.6527 -165.5628,29.6072 -158.9149,29.8308 -151.4379,31.5321 -142.4918,32.135 -131.5963,32.2569 -121.2174,32.1367 -113.4167,32.0623 -106.4809,32.2134 -99.3616,32.4362 -90.9063,32.8013 -80.1677,33.3676 -67.8232,33.8951 -55.7579,34.2093 -44.7743,34.1666 -35.3698,33.6931 -27.4475,32.9004 -20.0428,31.9114 -12.1171,30.8881 -2.2041,30.0992 8.239,29.6003 16.808,29.2703 24.5436,29.0619 33.5678,28.8989 43.9264,28.6777 53.388,28.4877 60.9885,28.2129 68.5233,27.6132 76.9508,27.0363 85.7926,26.2693 94.6335,25.5033 103.3611,25.2015 111.5379,25.0465 119.7862,25.1467 127.7723,25.4817 135.5517,26.8131 143.1984,29.0267 149.9343,31.9168 154.6684,37.4625 156.2946,44.9427 154.5331,52.5811 149.5162,57.9852 142.4645,60.1549 134.2369,60.9566 126.5086,60.9286 118.8082,60.1401 109.8443,59.266 100.0766,58.5636 89.8399,57.5901 80.8703,56.584 73.4799,55.7758 66.3243,55.3498 59.1023,55.2548 51.3221,55.2912 42.2308,55.4743 32.2798,55.9088 23.0654,56.6551 14.8382,57.5457 5.556,58.124 -5.5706,58.1497 -15.645,58.0739 -23.4845,58.302 -32.3765,58.5711 -41.8561,58.7114 -50.9184,58.8602 -59.623,59.0234 -67.1264,59.0997 -74.2333,59.0899 -82.6636,58.8717 -91.2997,58.4383 -99.0678,58.2584 -107.5667,58.3683 -116.0394,58.4622 -124.3362,58.3 -132.2882,57.9416 -140.0837,57.649 -148.2927,57.3558 -155.8834,57.1029 -164.1108,56.98 -172.5299,56.9913 -173.2038,55.2415 -166.4517,54.9651 -159.0949,56.7699 -150.7909,57.0464 -141.1099,56.8829 -131.371,56.5255 -122.254,56.2555 -112.965,56.1181 -103.1255,56.0081 -93.9528,56.0303 -84.9621,56.1497 -74.5357,56.3285 -61.6493,56.6933 -49.1322,56.9398 -39.0944,56.8118 -29.5478,56.5179 -20.4343,56.0065 -12.4394,55.0897 -4.861,54.1804 2.663,53.7521 10.8311,53.6271 18.1615,53.5821 21.0523,53.5781 A8.6052,8.6052 0 0 1 21.5277,70.7819 T18.641,70.9375 11.2722,71.2425 2.455,71.5489 -5.3406,71.9238 -12.7923,72.421 -20.4685,72.8073 -29.3016,72.8883 -39.0948,72.7279 -49.1332,72.5991 -58.4301,72.7622 -68.6327,73.0759 -79.8137,73.2841 -89.6406,73.3906 -99.385,73.3857 -108.2278,73.4338 -117.3604,73.8308 -127.0767,74.248 -135.9164,74.6662 -145.1369,75.3144 -154.5215,75.6284 -163.126,75.0449 -171.8174,72.9532 -180.042,68.9865 -186.357,63.6538 -189.8313,56.7116 -189.2813,48.9286 -184.5573,42.5784 -176.6074,39.4411 -167.1438,38.9004 -158.8826,38.9236 -151.9639,39.0201 -144.6975,39.2743 -136.6608,39.6025 -128.7998,39.959 -120.8553,40.381 -112.9317,40.6233 -104.333,40.6518 -94.8968,40.8385 -86.5866,41.2817 -78.6164,41.6894 -70.4215,41.8395 -62.3828,41.9062 -53.9586,42.0338 -45.9224,42.1161 -37.5568,42.0405 -28.4897,41.7815 -20.1843,41.5364 -10.7362,41.3963 -0.2441,41.1849 8.7188,40.7369 17.7997,39.8725 26.8085,39.0193 35.9985,38.2738 46.5186,37.4956 55.109,37.1544 62.3064,37.2139 69.734,37.6055 77.9479,38.4539 86.8608,39.3846 96.3283,39.9478 107.0731,40.3471 116.1793,40.9185 123.092,41.7047 130.5281,42.1235 138.2283,41.6397 139.1782,43.6781 132.4896,44.956 124.8072,43.447 117.2755,42.9923 109.468,42.8183 100.6943,42.9276 91.3485,43.5492 82.8749,44.2011 74.5022,44.517 66.1848,44.8261 57.6383,45.1486 47.8947,45.289 38.5936,45.3394 29.1677,45.5745 20.5516,45.7131 13.4829,45.7891 4.4323,46.2009 -5.7883,46.9627 -14.2963,47.8796 -22.572,48.7538 -30.6063,49.3234 -39.1872,49.7389 -49.7973,50.0061 -61.7721,50.0942 -74.7608,50.2185 -86.4944,50.1759 -95.791,49.9386 -105.1696,49.6047 -115.33,49.3541 -125.5718,49.65 -136.4454,50.2694 -145.4177,50.4271 -152.7837,49.9426 -161.4426,48.1953 -170.1574,45.5117 -177.7539,42.3226 -183.9451,37.2425 -186.4685,30.2101 -183.9861,23.4376 -177.2302,19.4622 -169.4483,17.51 -162.5018,15.8988 -155.103,15.3616 -147.2185,15.6708 -138.7663,15.9843 -129.832,16.2525 -120.9595,16.381 -111.62,16.4067 -101.0194,16.3152 -89.2413,16.0555 -76.926,15.6602 -65.1533,15.3632 -54.2848,15.3156 -43.681,15.4867 -34.5967,15.6392 -25.3173,15.5186 -14.0409,15.27 -3.6189,15.2201 6.0701,15.5306 15.4042,16.0034 23.3128,16.3697 31.6851,16.6511 40.4841,16.8239 48.1942,16.8711 56.2878,16.8446 66.8245,16.7227 78.4919,16.6537 87.9249,16.7193 96.6629,16.8701 105.2548,16.981 112.823,16.9352 120.3941,16.7397 128.6691,16.3064 137.4616,15.6191 138.2272,15.0763 130.6621,14.9308 122.2289,14.8777 113.5064,14.8122 105.5855,14.8886 98.6278,15.0516 90.7548,15.1765 82.1671,15.5234 73.543,16.2595 65.4663,16.7211 58.015,16.8885 48.6595,17.1369 37.0587,17.2961 27.5183,17.4562 20.2965,17.7462 11.9984,18.2557 2.0166,19.1336 -7.9726,19.9968 -16.5483,20.6153 -24.1525,21.1876 -33.6112,21.8196 -44.9208,22.3799 -54.5857,22.6732 -62.6071,23.0065 -70.6829,23.386 -78.5174,23.7189 -87.6522,24.3251 -99.3636,24.9946 -111.6652,25.4991 -124.3851,26.2076 -135.9989,27.0175 -145.7079,27.3726 -153.7848,27.2253 -161.5504,26.6624 -170.1392,25.7225 -178.7679,23.9925 -186.9013,21.2846 -193.778,16.5126 -197.8229,9.4446 -196.6668,1.9382 -190.3664,-3.0665 -182.446,-4.507 -173.9902,-4.5725 -165.2633,-4.4304 -157.4577,-4.2966 -150.1492,-4.2255 -142.9287,-4.3014 -135.5174,-4.6322 -126.3285,-5.4836 -117.1023,-6.2741 -109.61,-6.4428 -101.6373,-6.3853 -93.1838,-6.2303 -84.8287,-6.0355 -75.3874,-5.9084 -64.12,-5.9318 -52.97,-6.0242 -42.5097,-6.049 -33.7906,-6.0991 -25.3398,-6.2509 -14.3066,-6.6877 -4.4238,-7.4363 -0.5912,-7.8531 A7.8753,7.8753 0 0 1 0.5912,7.8531 Z" stroke-linecap="round" fill="#f1ac4b"/></g></g><g transform="matrix(1, 0, 0, 1, 1365.6579, 898.0245)" opacity="1"><g transform="scale(1)"><path d="M0,-8.5248 T2.1888,-8.5168 8.6926,-8.565 16.9908,-8.6708 25.364,-8.7505 33.223,-8.8533 40.6977,-9.0016 48.9283,-8.9702 58.0894,-8.7124 67.9095,-8.9826 76.8324,-9.7501 84.4221,-10.2682 92.1371,-10.5538 100.2649,-10.8059 107.8597,-11.1319 114.628,-11.1851 117.7651,-11.0503 A9.4374,9.4374 0 0 1 116.6415,7.7911 T111.1588,7.6702 102.1452,7.5773 94.6425,7.6651 86.3772,7.8418 78.3102,8.2482 71.0176,8.9169 63.3178,9.4684 55.6819,9.5453 47.6903,9.2896 39.0135,9.1165 31.2356,9.0565 24.1856,8.9311 16.8902,8.737 8.6926,8.565 2.1888,8.5168 0,8.5248 A8.5248,8.5248 0 0 1 0,-8.5248 ZM126.2556,-4.298 T127.0588,-1.6654 127.5462,5.8348 124.1808,13.3555 117.5672,17.4466 110.5566,20.0728 103.2659,21.7037 95.11,22.1095 87.3323,21.928 79.7759,21.9361 71.8442,22.2622 63.3449,22.2848 54.1054,21.877 44.833,21.5618 35.3357,21.4214 26.8439,21.356 18.5977,21.4058 9.1626,21.6002 -0.244,21.836 -11.7589,21.6545 -24.0149,20.8615 -34.0882,19.8908 -43.4903,19.0286 -52.1834,18.3179 -61.9771,17.9226 -71.6391,17.9226 -80.3967,18.3178 -89.0164,18.8474 -96.3561,19.2689 -103.7547,19.6714 -112.1235,20.3279 -120.6935,20.967 -128.3509,21.3019 -136.3604,21.5244 -144.4608,21.6433 -152.5371,21.7172 -160.4106,21.8251 -167.4416,21.8446 -174.8808,21.7624 -183.224,21.6345 -191.5599,21.5179 -198.9979,21.8027 -199.7705,20.1344 -193.4714,17.3441 -186.2815,16.6402 -178.1293,16.7887 -168.8492,17.0656 -158.7678,17.4065 -147.6985,17.5036 -137.8311,17.6483 -129.989,17.8697 -122.7257,17.8644 -114.2542,17.5918 -103.5064,17.3544 -91.6256,17.1815 -81.2167,16.7367 -72.058,16.1792 -63.2437,15.8116 -55.7654,15.6593 -48.578,15.6217 -40.7112,15.5251 -33.0215,15.3051 -25.435,15.1466 -17.8211,15.0619 -10.8625,14.966 -3.2694,14.8853 5.2051,14.8207 13,14.8776 20.9766,15.0794 29.9129,15.1609 38.9169,15.0385 47.7759,14.7963 56.0475,14.4531 64.1343,14.2172 71.6788,14.1975 79.1799,14.2499 86.9226,14.3934 94.3328,15.0849 101.4138,16.4071 108.3604,17.8189 116.7954,17.9579 121.6555,17.4293 A9.6252,9.6252 0 0 1 124.4845,36.4707 T121.2522,36.9588 114.2635,37.5548 107.0418,37.0863 100.0657,35.6229 93.1826,34.025 86.2364,33.1034 78.8368,32.7725 71.3001,32.5568 64.0389,32.3906 56.6901,32.4044 49.3917,32.5405 41.9654,32.589 34.4034,32.6673 25.5857,32.9006 16.3872,33.032 8.1656,33.0012 -0.3191,33.0278 -8.1799,33.0567 -15.2774,33.0452 -22.8088,33.0268 -31.4566,33.0407 -39.7236,33.0601 -47.0976,32.8844 -55.131,32.5185 -63.2069,32.2112 -71.5261,32.083 -80.4399,32.2176 -91.2309,32.6564 -103.2395,33.0214 -113.6777,33.2364 -122.1606,33.6363 -129.6323,34.1557 -137.6381,34.7231 -145.8437,35.1234 -153.9139,35.3237 -164.0922,35.6418 -174.2567,35.8485 -181.9516,35.8171 -189.8782,35.5489 -197.9266,34.788 -205.3414,33.0427 -211.5248,28.7311 -214.5253,22.0702 -214.6225,14.7399 -212.1119,8.1749 -206.101,4.3713 -198.7293,3.2017 -191.3651,3.1119 -183.7651,3.2727 -176.4241,3.4812 -168.3606,3.7241 -160.4059,3.8966 -152.4815,4.019 -144.4586,4.1713 -136.6319,4.2665 -128.9261,4.2015 -121.6351,3.9372 -113.1312,3.4411 -104.2533,3.0938 -96.5388,3.1299 -89.3201,3.2803 -80.5336,3.4926 -71.3259,3.8736 -61.3626,4.5328 -51.4237,5.1252 -42.8166,5.4121 -33.6347,5.4696 -23.8295,5.1221 -11.9815,4.5093 -0.906,3.9851 6.9906,3.6053 14.0249,3.369 21.3982,3.2734 29.7298,3.2895 38.669,3.3849 46.6872,3.4585 54.6594,3.5493 63.1931,3.5373 71.0096,3.2403 78.5122,2.8133 86.0743,2.694 93.5749,2.8931 101.1918,2.4165 108.9758,0.3221 111.0807,2.0038 108.7357,3.1142 108.151,1.0389 A9.4374,9.4374 0 0 1 126.2556,-4.298 Z" stroke-linecap="round" fill="#f1ac4b"/></g></g><g transform="matrix(1, 0, 0, 1, 1230.2413, 931.1122)" opacity="1"><g transform="scale(1)"><path d="M0.479,-6.347 T6.0354,-5.6442 17.7296,-4.424 30.2707,-3.617 41.8343,-3.2796 51.2208,-3.4557 59.7104,-3.9019 67.848,-4.3644 77.4385,-5.1134 87.2004,-6.0949 97.4253,-6.7651 103.6046,-6.9627 A7.6724,7.6724 0 0 1 102.2554,8.3227 T100.3323,7.998 94.7965,7.382 87.4201,6.857 77.8741,6.5449 68.2073,6.4852 60.0311,6.5627 51.376,6.6413 41.7377,6.7278 29.8972,6.8132 17.0254,6.7286 5.1201,6.486 -0.479,6.347 A6.365,6.365 0 0 1 0.479,-6.347 Z" stroke-linecap="round" fill="#f1ac4b"/></g></g></svg>