<svg xmlns="http://www.w3.org/2000/svg" direction="ltr" width="138.33660682857112" height="136.50739067249162" viewBox="1098.7401099596188 662.3899528045675 138.33660682857112 136.50739067249162" stroke-linecap="round" stroke-linejoin="round" data-color-mode="light" class="tl-container tl-theme__force-sRGB tl-theme__light" style="background-color: rgb(249, 250, 251);"><defs/><g transform="matrix(1, 0, 0, 1, 1183.3485, 696.6759)" opacity="1"><g transform="scale(1)"><path d="M-0.6332,2.0068 T-1.6074,1.6697 -3.7417,0.9423 -6.3732,0.202 -9.2066,-0.1181 -12.4191,-0.029 -15.8252,0.0716 -19.0881,0.2951 -22.61,0.8275 -25.9586,1.619 -28.8804,2.6147 -31.7261,3.8831 -34.34,5.2463 -36.4689,6.5919 -38.2163,8.0466 -39.7404,9.7463 -41.5347,12.0861 -43.6968,15.0317 -45.7633,17.9127 -47.4972,20.4324 -48.7926,22.5792 -49.6589,24.4253 -50.2535,26.2474 -50.6683,28.3089 -50.9617,30.7161 -51.1511,33.4395 -51.1468,36.1821 -50.8736,38.8958 -50.3866,41.6132 -49.7087,44.2591 -48.8668,46.7763 -47.8895,49.0952 -46.6267,51.6265 -45.0707,54.3477 -43.2134,56.9917 -41.0577,59.4563 -38.903,61.4599 -36.8422,62.9902 -34.9506,64.1565 -32.377,65.3521 -28.7986,66.5316 -25.1727,67.2998 -22.3201,67.7363 -20.1378,67.9894 -17.994,68.1919 -15.7245,68.3742 -13.3855,68.516 -11.0144,68.502 -8.3467,68.2417 -5.3417,67.7695 -1.9006,67.0543 1.3886,66.2573 4.1567,65.4981 6.5469,64.6574 8.4144,63.7457 10.0734,62.6604 11.6224,61.4388 12.9587,60.1181 14.5254,58.0763 16.1209,55.4083 17.1389,53.1716 17.9086,51.2074 18.6302,49.19 19.1925,47.3356 19.6354,44.7629 19.843,41.3206 19.7743,37.6474 19.5861,34.0903 19.4033,31.2225 19.2707,28.7063 18.9473,25.7878 18.3144,22.7478 17.5415,19.9876 16.733,17.6103 15.5383,15.4367 13.6269,13.1151 11.7792,11.3267 10.1584,10.0617 8.0968,8.6064 6.132,6.9989 4.4529,5.3723 3.5706,4.5634 A2.1884,2.1884 0 0 1 6.5494,1.3566 T7.367,2.1547 8.7569,3.7754 10.4025,5.3864 12.5189,6.8384 14.5086,8.2056 16.1611,9.5779 17.9489,11.4978 19.6401,13.8769 20.669,16.228 21.4915,18.8854 22.2566,21.8392 22.8167,24.3054 23.149,26.2506 23.2942,28.5848 23.2951,31.0853 23.3439,33.9124 23.4506,36.5773 23.5289,38.543 23.5619,40.4756 23.4072,43.3737 23.0603,46.354 22.5847,48.383 21.9628,50.3497 21.2368,52.4812 20.0195,55.4385 18.2093,58.6689 16.5671,60.8324 15.0883,62.4166 13.4297,63.8745 11.569,65.162 9.5501,66.2833 7.3978,67.1394 4.8547,67.9641 2.0413,68.7826 -1.3,69.6956 -4.8084,70.5815 -7.9728,71.2836 -10.9628,71.7487 -13.5517,71.8359 -15.9715,71.7362 -18.3174,71.5836 -20.517,71.3716 -22.8065,71.1227 -25.8458,70.5743 -28.7839,69.8762 -30.859,69.2496 -32.8407,68.4571 -34.6923,67.4968 -36.4226,66.3771 -38.3644,64.9814 -40.5507,63.2439 -42.8753,61.068 -45.2318,58.4314 -47.2683,55.6462 -48.9975,52.8048 -50.3702,50.1065 -51.354,47.6069 -52.2395,44.9129 -52.9769,42.1037 -53.5489,39.1855 -53.9065,36.2338 -53.9973,33.2898 -53.9002,30.3546 -53.5749,27.6407 -52.9781,25.2257 -52.1073,23.1526 -50.9836,21.2166 -49.56,19.0345 -47.8381,16.4635 -45.8319,13.5156 -43.7096,10.4237 -41.7773,7.8345 -39.9214,5.9137 -37.8528,4.3511 -35.5406,2.9748 -32.8154,1.5308 -29.8114,0.0783 -26.6994,-1.1365 -23.1728,-2.1787 -19.4882,-3.0136 -16.1343,-3.6104 -13.2076,-4.046 -10.6503,-4.2809 -8.5155,-4.2475 -6.644,-3.9032 -4.7782,-3.3998 -2.5988,-2.8666 -0.358,-2.2898 0.6332,-2.0068 A2.1044,2.1044 0 0 1 -0.6332,2.0068 Z" stroke-linecap="round" fill="#1d1d1d"/></g></g></svg>