<svg xmlns="http://www.w3.org/2000/svg" direction="ltr" width="433.996430759606" height="266.2023154307806" viewBox="1106.1086014162804 715.8421916004323 433.996430759606 266.2023154307806" stroke-linecap="round" stroke-linejoin="round" data-color-mode="light" class="tl-container tl-theme__force-sRGB tl-theme__light" style="background-color: rgb(249, 250, 251);"><defs/><g transform="matrix(1, 0, 0, 1, 1143.649, 947.0731)" opacity="1"><g transform="scale(1)"><path d="M0.1516,-1.812 T1.2946,-1.6975 3.6126,-1.487 6.3053,-1.2421 9.8794,-0.9644 14.7919,-0.7521 20.7146,-0.5506 26.2921,-0.3031 30.9109,-0.0694 34.6917,0.1337 37.8864,0.3366 40.9711,0.5514 44.0565,0.7526 47.3389,0.9204 50.9927,1.0471 55.1265,1.0942 59.3358,1.0865 63.0511,1.067 66.7247,1.0227 70.4254,0.9488 74.0299,0.8814 77.5374,0.8606 80.4736,0.8384 82.8613,0.7774 85.2247,0.7254 88.3226,0.7418 92.6389,0.7982 97.8353,0.8384 103.5465,0.8673 109.0962,0.9017 114.3531,0.995 119.5497,1.1168 125.6022,1.2372 133.5918,1.3452 142.2357,1.4048 151.1926,1.4495 160.3147,1.5176 168.2158,1.6167 174.7744,1.7119 180.4918,1.7752 186.3439,1.8098 192.8186,1.7991 200.1059,1.7637 207.7022,1.7126 214.1799,1.6439 219.7544,1.5451 225.2638,1.4184 230.5948,1.3288 235.4634,1.2959 239.7372,1.2986 243.7776,1.3047 247.5383,1.2875 250.8307,1.2372 254.0627,1.1825 257.4247,1.1321 261.1147,1.091 264.8407,1.0686 268.6274,1.0564 273.0501,1.0225 279.6268,1.02 290.7521,1.1144 303.7385,1.1817 314.6599,1.1453 322.5249,1.0663 327.36,0.996 330.6797,0.9567 333.2683,0.909 335.6108,0.9144 338.1833,1.0283 340.668,1.1031 342.8828,1.076 345.1147,1.0142 347.6685,0.9924 350.4016,0.9758 352.8534,0.8772 355.307,0.6442 357.7192,0.3282 359.8641,0.0789 362.1179,-0.0888 363.319,-0.1617 A2.1017,2.1017 0 0 1 363.341,4.0417 T362.2105,3.9993 359.9861,3.9157 357.8557,3.8258 355.4672,3.7649 352.9533,3.7812 350.4568,3.8489 347.7064,3.9369 345.1343,3.9814 342.8389,3.9495 340.5539,3.8516 338.0277,3.7124 335.5045,3.5335 333.2495,3.3526 330.6979,3.2729 327.3935,3.2919 322.5499,3.3623 314.6685,3.4414 303.7274,3.4777 290.7335,3.4104 279.6334,3.316 273.0667,3.3185 268.6349,3.3525 264.8543,3.3647 261.1408,3.387 257.4591,3.428 254.1016,3.4783 250.866,3.5331 247.5503,3.5836 243.7742,3.6009 239.7355,3.5949 235.4782,3.5922 230.633,3.6249 225.3167,3.7143 219.7954,3.8413 214.2043,3.9407 207.7181,4.0098 200.1175,4.0614 192.8222,4.0974 186.3301,4.109 180.467,4.0755 174.7415,4.0137 168.1868,3.9207 160.2977,3.8249 151.1818,3.761 142.2209,3.7222 133.5606,3.6704 125.5587,3.5734 119.4995,3.4681 114.3181,3.3676 109.0896,3.3038 103.5459,3.3093 97.8341,3.3353 92.6358,3.3703 88.314,3.417 85.206,3.4156 82.834,3.331 80.4566,3.2184 77.5505,3.1599 74.0737,3.1815 70.4725,3.2506 66.753,3.3272 63.065,3.3749 59.3418,3.3989 55.0997,3.4125 50.915,3.373 47.2239,3.2566 43.9118,3.1034 40.8179,2.9241 37.7491,2.7412 34.5778,2.5819 30.8057,2.4375 26.201,2.2841 20.6577,2.1467 14.7215,2.0934 9.754,2.0806 6.122,2.0701 3.3555,2.0198 0.9945,1.889 -0.1516,1.812 A1.8183,1.8183 0 0 1 0.1516,-1.812 Z" stroke-linecap="round" fill="#1d1d1d"/></g></g><g transform="matrix(1, 0, 0, 1, 1138.1086, 754.151)" opacity="1"><g transform="scale(1)"><path d="M2.1055,0 T2.1054,0.7661 2.1391,2.4833 2.2106,4.7892 2.312,8.084 2.4632,11.353 2.6483,14.3578 2.7985,17.5898 2.8933,20.5645 2.9397,23.457 2.9519,26.3594 2.9489,29.5118 2.926,32.9378 2.9012,36.718 2.8552,40.4198 2.83,43.1981 2.8246,45.3756 2.8547,47.9051 2.9502,50.3623 3.0306,52.4254 2.9632,55.054 2.7549,58.1501 2.574,61.866 2.5068,66.5786 2.6345,71.5739 2.9573,76.2183 3.3156,80.2391 3.6189,83.3784 3.9171,85.773 4.4762,88.7404 5.0632,91.6882 5.3375,94.113 5.4969,96.8158 5.6809,99.117 6.0071,101.467 6.3604,103.7587 6.5776,105.7124 6.6736,107.9937 6.6038,111.155 6.4403,114.2697 6.3154,116.6131 6.21,118.9737 6.128,121.3236 6.0604,123.9008 6.1117,127.0942 6.3475,130.4344 6.6306,133.6789 6.86,136.7816 6.9463,140.1466 6.8846,144.1662 6.7061,148.349 6.4347,152.3924 6.2052,155.6861 6.064,158.0569 5.9697,160.2154 5.8817,162.4828 5.7269,164.7776 5.6485,166.9371 5.6738,169.5405 5.6989,172.2156 5.8539,174.9577 6.1508,177.7782 6.5316,179.8833 6.8998,181.8826 7.0647,183.9092 7.0529,185.8365 7.0458,187.965 6.9659,190.9667 6.8665,192.8168 A2.4597,2.4597 0 0 1 1.9935,192.1432 T2.0923,191.3886 2.2073,189.5531 2.2461,187.5306 2.3699,185.5851 2.5291,183.4794 2.4727,181.3689 2.2592,179.3809 2.0498,176.9313 1.8579,174.4997 1.6697,172.3528 1.5367,170.2229 1.5426,168.2895 1.689,166.3601 2.0659,164.2767 2.5912,162.011 3.085,159.8555 3.4799,157.8091 3.7779,155.4992 4.0455,152.2424 4.2771,148.2595 4.4031,144.1509 4.3982,140.2468 4.2536,137.0093 3.9411,133.9769 3.5048,130.7215 3.0551,127.2602 2.7265,123.9106 2.6228,121.2668 2.617,118.8978 2.6097,116.5236 2.5981,114.1533 2.5959,111.8748 2.6716,109.3465 2.7638,106.7874 2.8033,104.4364 2.7516,101.7574 2.6384,99.3381 2.495,97.025 2.2871,94.4643 2.0456,92.1927 1.7462,90.0878 1.4809,88.0328 1.3381,86.0201 1.1797,83.6058 0.8949,80.4701 0.4824,76.4096 0.0842,71.6641 -0.1414,66.5736 -0.204,61.7909 -0.2004,58.0606 -0.2207,55.055 -0.2691,52.5109 -0.2965,50.3797 -0.1502,47.785 0.1158,45.2443 0.3119,43.1382 0.4057,40.4063 0.3939,36.7284 0.3398,32.9614 0.2547,29.555 0.1541,26.4263 0.0288,23.5749 -0.1524,20.7689 -0.4508,17.9124 -0.9311,14.7925 -1.4693,11.8041 -1.9565,8.3013 -2.1666,4.8229 -2.1229,2.513 -2.1054,0.7661 -2.1055,0 A2.1055,2.1055 0 0 1 2.1055,0 Z" stroke-linecap="round" fill="#1d1d1d"/></g></g><g transform="matrix(1, 0, 0, 1, 1502.2026, 747.8422)" opacity="1"><g transform="scale(1)"><path d="M2.091,0 T2.0895,0.7957 2.1226,2.5797 2.1959,4.9726 2.2935,8.3969 2.4407,11.7978 2.6399,14.9184 2.812,18.2728 2.9103,21.3588 2.9486,24.3595 2.9544,27.3706 2.9562,30.6436 2.9477,34.2009 2.9333,38.1232 2.8949,41.9635 2.87,44.8459 2.8582,47.1075 2.8851,49.7375 2.9806,52.2928 3.0592,54.4356 2.988,57.1622 2.7807,60.3742 2.6056,64.2334 2.543,69.1304 2.6787,74.3196 3.0159,79.1421 3.3893,83.3166 3.6967,86.5784 3.9958,89.067 4.5691,92.1541 5.1697,95.2213 5.4452,97.7351 5.602,100.5354 5.7902,102.9229 6.1329,105.3629 6.506,107.7383 6.7368,109.7625 6.8365,112.1291 6.7571,115.4096 6.5786,118.6454 6.4409,121.0824 6.3249,123.5352 6.2367,125.9726 6.1777,128.6473 6.2512,131.9686 6.5096,135.4418 6.8117,138.8098 7.044,142.0319 7.1309,145.5219 7.0775,149.6906 6.9005,154.0326 6.6265,158.2285 6.3839,161.6464 6.2235,164.1064 6.1192,166.3442 6.0279,168.6961 5.8679,171.0779 5.7864,173.3255 5.8071,176.0367 5.823,178.818 5.9046,180.921 6.1279,183.3468 6.5366,186.0411 6.9821,188.2885 7.2225,190.4427 7.235,192.6325 7.2178,194.6946 7.2491,196.8187 7.1479,199.0691 7.031,200.198 A2.4544,2.4544 0 0 1 2.169,199.522 T2.2804,198.239 2.4046,196.0155 2.4658,194.1288 2.6099,192.2363 2.7487,190.3222 2.6723,188.3072 2.448,186.2428 2.2288,183.6985 2.0299,181.1766 1.8302,178.9523 1.6851,176.7446 1.6864,174.7409 1.8339,172.7433 2.2208,170.5857 2.7637,168.2316 3.2769,165.9866 3.6875,163.8594 3.9891,161.4625 4.2603,158.0814 4.5033,153.945 4.6397,149.6764 4.6425,145.6194 4.4892,142.2538 4.1626,139.1016 3.7222,135.7231 3.2697,132.134 2.9417,128.6593 2.8403,125.9162 2.8333,123.4573 2.8249,120.9918 2.8093,118.5287 2.8275,115.2819 2.9247,112.1094 3.0077,109.9152 3.0282,108.0164 2.9617,105.6469 2.8448,103.137 2.6934,100.7381 2.4692,98.076 2.212,95.7122 1.8978,93.5266 1.6179,91.3974 1.4634,89.3118 1.284,86.8036 0.9801,83.5456 0.5567,79.3312 0.15,74.4078 -0.0757,69.1253 -0.1322,64.1611 -0.12,60.2871 -0.1338,57.1631 -0.1848,54.5211 -0.2198,52.3108 -0.0736,49.6194 0.1975,46.9805 0.3917,44.7892 0.4855,41.9508 0.4811,38.1332 0.4368,34.2233 0.365,30.6844 0.2673,27.4342 0.1319,24.4727 -0.0641,21.5573 -0.3714,18.588 -0.8525,15.3461 -1.4099,12.2423 -1.9289,8.6102 -2.152,5.0049 -2.1064,2.6081 -2.0895,0.7957 -2.091,0 A2.091,2.091 0 0 1 2.091,0 Z" stroke-linecap="round" fill="#1d1d1d"/></g></g></svg>