# Blender 4.4.0
# www.blender.org
o IntroGravestoneTerrain
v 2.340164 4.522642 1.598768 0.0510 0.0510 0.0588
v 2.530461 4.142133 1.303182 0.0510 0.0510 0.0588
v 2.530461 4.142133 -0.085442 0.0510 0.0510 0.0588
v 2.149866 4.903151 -0.085442 0.0510 0.0510 0.0588
v 2.149866 4.903151 1.303182 0.0510 0.0510 0.0588
v 3.183694 11.562731 7.498698 0.0510 0.0510 0.0588
v 2.446811 10.991027 7.498698 0.0510 0.0510 0.0588
v 3.183694 11.562731 9.067435 0.0510 0.0510 0.0588
v 2.446811 10.991027 9.067435 0.0510 0.0510 0.0588
v 2.815253 11.276880 9.401362 0.0510 0.0510 0.0588
v 1.548129 6.227875 -0.044576 0.2471 0.2471 0.2941
v 3.033592 3.210624 -0.044576 0.2471 0.2471 0.2941
v 10.179924 3.456214 7.440015 0.2471 0.2471 0.2941
v -4.143054 3.899085 -0.044576 0.2471 0.2471 0.2941
v 4.152835 2.139502 -0.044576 0.2471 0.2471 0.2941
v 5.582184 2.450843 -0.044576 0.2471 0.2471 0.2941
v 12.513692 5.329115 -0.044576 0.2471 0.2471 0.2941
v 0.120863 9.322227 -0.044576 0.2471 0.2471 0.2941
v -2.167816 7.773836 -0.044576 0.2471 0.2471 0.2941
v 8.436173 12.041979 4.597856 0.2471 0.2471 0.2941
v -4.143054 3.899085 4.597856 0.2471 0.2471 0.2941
v 0.120863 9.322227 4.597856 0.2471 0.2471 0.2941
v -2.167816 7.773836 4.597856 0.2471 0.2471 0.2941
v 1.548129 6.227875 4.564369 0.2471 0.2471 0.2941
v 3.033592 3.210624 4.564369 0.2471 0.2471 0.2941
v 4.152835 2.139502 4.546368 0.2471 0.2471 0.2941
v 0.120863 9.322227 4.564369 0.2471 0.2471 0.2941
v 10.179924 3.456214 -0.044576 0.2471 0.2471 0.2941
v 5.582184 2.450843 4.528367 0.2471 0.2471 0.2941
v 12.513692 5.329115 4.528367 0.2471 0.2471 0.2941
v 8.812078 13.857327 4.581112 0.0000 0.0000 0.0000
v 1.176042 10.119370 4.597856 0.2471 0.2471 0.2941
v 8.436173 12.041979 7.509504 0.2471 0.2471 0.2941
v 5.582184 2.450843 7.440015 0.2471 0.2471 0.2941
v 12.513692 5.329115 7.440015 0.2471 0.2471 0.2941
v 1.176042 10.119370 7.509504 0.2471 0.2471 0.2941
v 2.768233 5.978505 4.563111 0.2471 0.2471 0.2941
v 2.768233 5.978505 7.474760 0.2471 0.2471 0.2941
v 7.559247 2.449730 -0.044576 0.2471 0.2471 0.2941
v 7.559247 2.449730 7.440015 0.2471 0.2471 0.2941
v 4.446756 12.695065 4.597855 0.2471 0.2471 0.2941
v 4.446756 12.695065 7.509504 0.2471 0.2471 0.2941
v -4.143054 3.899085 14.202907 0.2471 0.2471 0.2941
v 0.120863 9.322227 14.202907 0.2471 0.2471 0.2941
v -2.167816 7.773836 14.202907 0.2471 0.2471 0.2941
v 1.176042 10.119370 14.202907 0.2471 0.2471 0.2941
v 8.436173 12.041979 14.243258 0.2471 0.2471 0.2941
v 1.176042 10.119370 14.243258 0.2471 0.2471 0.2941
v 4.446756 12.695065 14.243258 0.2471 0.2471 0.2941
v 0.120863 9.322227 4.597856 0.2471 0.2471 0.2941
v 0.120863 9.322227 4.564369 0.2471 0.2471 0.2941
v 1.176042 10.119370 4.597856 0.2471 0.2471 0.2941
v 8.436173 12.041979 7.509504 0.2471 0.2471 0.2941
v 12.513692 5.329115 7.440015 0.2471 0.2471 0.2941
v 8.436173 12.041979 14.225503 0.2471 0.2471 0.2941
v 12.513692 5.329115 14.156014 0.2471 0.2471 0.2941
v 1.231619 -4.418780 -0.044576 0.2000 0.5490 0.2784
v 3.593916 -3.016678 -0.044576 0.2000 0.5490 0.2784
v 1.548129 6.227875 -0.044576 0.2000 0.5490 0.2784
v 3.033592 3.210624 -0.044576 0.2000 0.5490 0.2784
v 10.179924 3.456214 7.440015 0.2000 0.5490 0.2784
v -4.493767 0.489125 -0.044576 0.2000 0.5490 0.2784
v -4.143054 3.899085 -0.044576 0.2000 0.5490 0.2784
v -1.870068 -5.178639 -0.044576 0.2000 0.5490 0.2784
v -4.082788 -3.209322 -0.044576 0.2000 0.5490 0.2784
v 6.296113 -2.417377 -0.044576 0.2000 0.5490 0.2784
v 4.152835 2.139502 -0.044576 0.2000 0.5490 0.2784
v 8.961491 -0.084995 -0.044576 0.2000 0.5490 0.2784
v 5.582184 2.450843 -0.044576 0.2000 0.5490 0.2784
v 12.513692 2.132717 -0.044576 0.2000 0.5490 0.2784
v 12.513692 5.329115 -0.044576 0.2000 0.5490 0.2784
v 0.120863 9.322227 -0.044576 0.2000 0.5490 0.2784
v -2.167816 7.773836 -0.044576 0.2000 0.5490 0.2784
v 1.548129 6.227875 4.564369 0.2000 0.5490 0.2784
v 3.033592 3.210624 4.564369 0.2000 0.5490 0.2784
v 4.152835 2.139502 4.546368 0.2000 0.5490 0.2784
v 0.120863 9.322227 4.564369 0.2000 0.5490 0.2784
v 10.179924 3.456214 -0.044576 0.2000 0.5490 0.2784
v 5.582184 2.450843 4.528367 0.2000 0.5490 0.2784
v 1.176042 10.119370 4.597856 0.2000 0.5490 0.2784
v 8.436173 12.041979 7.509504 0.2000 0.5490 0.2784
v 5.582184 2.450843 7.440015 0.2000 0.5490 0.2784
v 12.513692 5.329115 7.440015 0.2000 0.5490 0.2784
v 1.176042 10.119370 7.509504 0.2000 0.5490 0.2784
v 2.768233 5.978505 4.563111 0.2000 0.5490 0.2784
v 2.768233 5.978505 7.474760 0.2000 0.5490 0.2784
v 7.559247 2.449730 -0.044576 0.2000 0.5490 0.2784
v 7.559247 2.449730 7.440015 0.2000 0.5490 0.2784
v 4.446756 12.695065 7.509504 0.2000 0.5490 0.2784
v 4.446756 12.695065 7.509504 0.2471 0.2471 0.2941
v 8.436173 12.041979 7.509504 0.2471 0.2471 0.2941
v 12.513692 5.329115 4.528367 0.2471 0.2471 0.2941
v 12.513692 5.329115 7.440015 0.2471 0.2471 0.2941
v 1.176042 10.119370 4.597856 0.2471 0.2471 0.2941
v 1.176042 10.119370 4.597856 0.2471 0.2471 0.2941
v 1.176042 10.119370 4.597856 0.2471 0.2471 0.2941
v 1.176042 10.119370 7.509504 0.2471 0.2471 0.2941
v 1.176042 10.119370 7.509504 0.2471 0.2471 0.2941
v 1.176042 10.119370 7.509504 0.2471 0.2471 0.2941
v 1.176042 10.119370 14.202907 0.2471 0.2471 0.2941
v 1.176042 10.119370 14.243258 0.2471 0.2471 0.2941
vn -0.2581 -0.7747 -0.5773
vn -0.5352 -0.2677 0.8012
vn -0.8633 0.3486 0.3650
vn 0.9318 -0.0717 0.3557
vn -0.1621 -0.9204 0.3558
vn -0.1022 -0.8100 -0.5774
vn 0.6259 -0.7799 -0.0000
vn 0.4982 -0.8671 -0.0000
vn 0.7494 -0.6622 -0.0000
vn 0.8909 -0.4542 -0.0000
vn 0.5604 -0.8283 -0.0000
vn -0.9027 -0.4303 -0.0000
vn -0.9081 -0.4188 -0.0000
vn -0.8066 -0.5911 -0.0000
vn -0.2749 -0.9615 -0.0000
vn -0.8070 -0.5906 -0.0000
vn 0.1820 -0.9833 -0.0000
vn -0.2711 -0.9626 -0.0000
vn -0.1547 -0.9880 -0.0000
vn -0.2497 0.9683 -0.0000
vn 0.5583 0.8297 -0.0000
vn 0.5604 0.8282 -0.0000
vn -0.6187 0.7856 -0.0000
vn 0.8547 0.5192 -0.0000
vn -0.8681 -0.4964 -0.0000
vn -0.9334 -0.3589 -0.0000
vn -0.8673 -0.4977 -0.0000
vn -0.4351 -0.9004 -0.0000
vn 0.1068 -0.9943 -0.0000
vn 0.5747 -0.8184 -0.0000
vn 0.6028 -0.7979 -0.0000
vn 0.5818 -0.8134 -0.0000
vn -0.0000 -0.0000 -0.0000
vn 0.9914 -0.0810 0.1028
vn -0.0000 1.0000 -0.0000
vn -0.1616 -0.9869 -0.0000
vn 0.2497 -0.9683 -0.0000
vn 0.6187 -0.7856 -0.0000
vn 0.0022 -0.0055 1.0000
vn -0.8547 -0.5192 -0.0000
vn -0.0000 -0.0000 1.0000
vn 0.0048 -0.0061 1.0000
vn 0.0034 -0.0074 1.0000
vn 0.0096 0.0029 0.9999
vn 0.0033 -0.0063 1.0000
vn 0.0023 -0.0062 1.0000
vn 0.0021 -0.0062 1.0000
vn -0.0235 -0.0109 0.9997
vn 0.0054 -0.0155 0.9999
vn -0.0047 -0.0039 1.0000
vn 0.0023 -0.0054 1.0000
vn -0.7746 0.2581 -0.5774
vn -0.2389 -0.8999 0.3649
vn 0.8101 -0.1022 -0.5773
vn 0.3557 -0.4586 0.8143
vn -0.0019 -0.0115 0.9999
vn 0.0024 -0.0075 1.0000
vn 0.0051 -0.0064 1.0000
vn -0.0000 -0.0099 1.0000
s 1
f 3//1 1//2 5//3
f 8//4 9//5 7//6
f 30//7 13//8 17//7
f 19//9 21//10 14//10
f 18//11 23//9 19//9
f 11//12 27//13 18//13
f 12//14 26//15 25//16
f 12//14 24//12 11//12
f 13//8 39//17 28//8
f 15//18 29//19 26//15
f 41//20 91//21 20//22
f 96//23 90//20 41//20
f 20//22 93//24 92//24
f 38//25 95//26 37//27
f 34//28 37//27 29//19
f 40//17 29//19 16//29
f 22//30 100//31 44//32
f 32//33 101//34 46//35
f 23//9 43//10 21//10
f 47//36 42//37 33//36
f 49//37 36//38 42//37
f 22//30 45//9 23//9
f 52//39 50//31 51//31
f 53//40 56//40 55//40
f 57//41 60//41 59//41
f 59//41 62//41 57//41
f 57//41 65//41 64//41
f 58//41 67//41 60//41
f 66//41 69//41 67//41
f 68//41 71//41 78//41
f 59//41 73//41 63//41
f 75//42 79//43 85//44
f 86//45 88//46 83//47
f 77//48 74//49 80//50
f 74//49 75//42 85//44
f 75//42 76//51 79//43
f 85//44 80//50 74//49
f 5//3 4//52 3//1
f 3//1 2//53 1//2
f 7//6 6//54 8//4
f 8//4 10//55 9//5
f 30//7 35//7 13//8
f 13//8 28//8 17//7
f 19//9 23//9 21//10
f 18//11 22//30 23//9
f 11//12 24//12 27//13
f 12//14 15//18 26//15
f 12//14 25//16 24//12
f 13//8 40//17 39//17
f 15//18 16//29 29//19
f 41//20 90//20 91//21
f 96//23 98//23 90//20
f 20//22 91//21 93//24
f 38//25 97//26 95//26
f 34//28 38//25 37//27
f 16//29 39//17 40//17
f 40//17 34//28 29//19
f 22//30 94//31 100//31
f 32//33 99//33 101//34
f 23//9 45//9 43//10
f 47//36 49//37 42//37
f 49//37 48//38 36//38
f 22//30 44//32 45//9
f 53//40 54//40 56//40
f 57//41 58//41 60//41
f 59//41 63//41 62//41
f 57//41 62//41 65//41
f 58//41 66//41 67//41
f 66//41 68//41 69//41
f 87//41 69//41 68//41
f 68//41 70//41 71//41
f 78//41 87//41 68//41
f 59//41 72//41 73//41
f 83//47 81//56 89//57
f 89//57 84//58 86//45
f 86//45 82//59 88//46
f 88//46 61//41 83//47
f 83//47 89//57 86//45
l 20 31
