# Blender 4.4.0
# www.blender.org
o Cube
v -1.000000 1.000000 -1.000000 0.8902 0.1725 0.2353
v -1.000000 1.000000 1.000000 0.8902 0.1725 0.2353
v 1.000000 1.000000 -1.000000 0.8902 0.1725 0.2353
v 1.000000 1.000000 1.000000 0.8902 0.1725 0.2353
v -1.000000 -1.000000 -1.000000 0.8902 0.1725 0.2353
v -1.000000 -1.000000 1.000000 0.8902 0.1725 0.2353
v 1.000000 -1.000000 -1.000000 0.8902 0.1725 0.2353
v 1.000000 -1.000000 1.000000 0.8902 0.1725 0.2353
v 1.000000 1.000000 -1.000000 0.8902 0.1725 0.2353
v 1.000000 1.000000 -1.000000 0.8902 0.1725 0.2353
v -1.000000 1.000000 -1.000000 0.8902 0.1725 0.2353
v -1.000000 1.000000 -1.000000 0.8902 0.1725 0.2353
v -1.000000 1.000000 1.000000 0.8902 0.1725 0.2353
v -1.000000 1.000000 1.000000 0.8902 0.1725 0.2353
v 1.000000 1.000000 1.000000 0.8902 0.1725 0.2353
v 1.000000 1.000000 1.000000 0.8902 0.1725 0.2353
v 1.000000 -1.000000 -1.000000 0.8902 0.1725 0.2353
v 1.000000 -1.000000 -1.000000 0.8902 0.1725 0.2353
v 1.000000 -1.000000 1.000000 0.8902 0.1725 0.2353
v 1.000000 -1.000000 1.000000 0.8902 0.1725 0.2353
v -1.000000 -1.000000 -1.000000 0.8902 0.1725 0.2353
v -1.000000 -1.000000 -1.000000 0.8902 0.1725 0.2353
v -1.000000 -1.000000 1.000000 0.8902 0.1725 0.2353
v -1.000000 -1.000000 1.000000 0.8902 0.1725 0.2353
vn -0.0000 -0.0000 -1.0000
vn -0.0000 -0.0000 1.0000
vn -0.0000 1.0000 -0.0000
vn 1.0000 -0.0000 -0.0000
vn -1.0000 -0.0000 -0.0000
vn -0.0000 -1.0000 -0.0000
s 1
f 13//3 9//3 11//3
f 16//4 17//4 10//4
f 20//6 21//6 18//6
f 24//5 12//5 22//5
f 7//1 1//1 3//1
f 4//2 6//2 8//2
f 13//3 15//3 9//3
f 16//4 19//4 17//4
f 20//6 23//6 21//6
f 24//5 14//5 12//5
f 7//1 5//1 1//1
f 4//2 2//2 6//2
